<svg width="48" height="48" viewBox="0 0 48 48" fill="none" xmlns="http://www.w3.org/2000/svg">
<path d="M44 7H4C2.343 7 1 8.343 1 10V38C1 39.657 2.343 41 4 41H44C45.657 41 47 39.657 47 38V10C47 8.343 45.657 7 44 7Z" fill="#00B0FF"/>
<path d="M35.1623 28.1538C35.1623 28.7487 35.7366 29.0792 36.1672 29.2774C36.5979 29.4757 36.7415 29.6079 36.7415 29.8062C36.7415 30.0706 36.3826 30.2028 36.0237 30.2028C35.4495 30.2028 35.0906 30.0706 34.8752 29.9384L34.6599 30.8637C34.947 30.9959 35.4495 31.062 35.9519 31.062C37.1722 31.062 37.9617 30.5332 37.9617 29.674C37.9617 28.6165 36.3108 28.5504 36.3826 28.0877C36.3826 27.9555 36.5261 27.7572 36.885 27.7572C37.0286 27.7572 37.5311 27.6912 38.0335 27.9555L38.2488 27.0963C37.9617 27.0302 37.6028 26.898 37.1722 26.898C35.9519 26.7658 35.1623 27.3607 35.1623 28.1538ZM40.1151 26.8319C39.8998 26.8319 39.6845 26.9641 39.6127 27.1624L37.8899 30.9298H39.1102L39.3255 30.335H40.7611L40.9047 30.9298H41.9814L41.0483 26.8319H40.1151ZM40.2587 27.9555L40.6176 29.4757H39.6844L40.2587 27.9555ZM33.7267 26.8319L32.7936 30.9298H33.9421L34.8752 26.8319H33.7267ZM32.004 26.8319L30.7838 29.6079L30.2813 27.2285C30.2096 26.9641 29.9942 26.8319 29.7789 26.8319H27.8408V26.9641C28.2715 27.0302 28.7022 27.1624 28.9893 27.2946C29.1329 27.3607 29.2046 27.4268 29.2764 27.6251L30.2096 30.8637H31.4298L33.2961 26.7658H32.004" fill="white"/>
<path d="M28.3631 19.0588C29.7167 20.456 29.7167 22.7062 28.3487 24.1034C26.9807 25.5005 24.7775 25.4858 23.4095 24.0886C22.0415 22.6915 22.0559 20.4413 23.4239 19.0441C24.0719 18.3822 24.9503 18.0146 25.8719 18.0146C26.8079 17.9999 27.7007 18.3822 28.3631 19.0588ZM23.7119 21.6031C23.7119 22.8385 24.6911 23.8239 25.9007 23.8239C27.1103 23.8239 28.0751 22.8238 28.0751 21.5884C28.0751 20.353 27.0959 19.3676 25.8863 19.3676C24.6911 19.3823 23.7119 20.3677 23.7119 21.6031Z" fill="white"/>
<path d="M12.336 18.0144C11.976 18.0144 11.6736 18.3233 11.6736 18.6909V18.7939C10.1616 17.5732 7.9584 17.8232 6.7632 19.3675C6.2592 19.9999 6 20.7794 6 21.603C6 23.5737 7.5696 25.1768 9.4992 25.1768C10.2912 25.1768 11.0544 24.8974 11.6736 24.3973V25.0445H12.9984V18.0144H12.336ZM9.4848 23.8238C8.2752 23.8238 7.296 22.8384 7.296 21.603C7.296 20.3676 8.2608 19.3675 9.4704 19.3675C10.68 19.3675 11.6592 20.3529 11.6592 21.5883V21.603C11.6592 22.8237 10.6944 23.8238 9.4848 23.8238Z" fill="white"/>
<path d="M34.1086 18.0144C33.3166 18.0144 32.5534 18.2938 31.9342 18.7939V18.6909V18.0144H31.2574C30.883 18.0144 30.5806 18.3085 30.5806 18.6762C30.5806 18.6762 30.5806 18.6762 30.5806 18.6909V25.0445H31.9054V21.603C31.9054 20.3823 32.8702 19.3822 34.0798 19.3675C34.4398 19.3675 34.7422 19.0733 34.7422 18.7056C34.7422 18.7056 34.7422 18.7056 34.7422 18.6909V18.0144H34.1086Z" fill="white"/>
<path d="M41.3521 18.0144C40.9921 18.0144 40.6897 18.3233 40.6897 18.6909V18.7939C39.1777 17.5585 36.9889 17.8232 35.7793 19.3675C35.2897 19.9999 35.0161 20.7941 35.0161 21.603C35.0161 23.5737 36.5857 25.1768 38.5153 25.1768C39.3073 25.1768 40.0705 24.8974 40.6897 24.3973V25.0445H42.0145V18.0144H41.3521ZM38.5009 23.8238C37.2913 23.8238 36.3121 22.8384 36.3121 21.603C36.3121 20.3676 37.2769 19.3675 38.4865 19.3675C39.6961 19.3675 40.6753 20.3529 40.6753 21.5883V21.603C40.6753 22.8237 39.7105 23.8238 38.5009 23.8238Z" fill="white"/>
<path d="M20.5296 18.0144H20.4432C20.112 18.0732 19.8672 18.3673 19.8816 18.7056V18.7939C18.3696 17.5584 16.1808 17.7938 14.9568 19.3233C14.4528 19.9704 14.1648 20.7646 14.1792 21.6029C14.1792 23.5737 15.7344 25.1768 17.664 25.1915C18.4704 25.1915 19.248 24.9121 19.8816 24.3973V24.5297C19.8528 25.721 18.9024 26.6622 17.7504 26.6622C17.5776 26.6622 17.4048 26.6475 17.232 26.6034C16.9296 26.5298 16.6272 26.6769 16.4976 26.9711L16.2096 27.6476C17.9376 28.5006 20.0112 27.7505 20.8464 25.9857C21.0624 25.5445 21.1776 25.0591 21.192 24.5591V18.0144H20.5296ZM17.6784 23.8237C16.4688 23.809 15.504 22.8089 15.5184 21.5882C15.5328 20.3675 16.512 19.3674 17.7216 19.3821C18.9168 19.3969 19.8816 20.3822 19.8816 21.6029C19.8816 22.8236 18.9168 23.8237 17.7216 23.8237C17.7072 23.8237 17.6928 23.8237 17.6784 23.8237Z" fill="white"/>
</svg>
