<svg width="1000" height="1000" viewBox="0 0 1000 1000" fill="none" xmlns="http://www.w3.org/2000/svg">
<path d="M816.31 631.32C814.95 630.9 812.2 630.44 809.8 629.25C791.16 620.04 772.55 610.79 754.04 601.34C746.01 597.24 742.97 590.66 745.05 583.41C747.3 575.56 755.8 570.4 763.48 574C784.55 583.89 805.32 594.44 825.92 605.31C832.04 608.54 833.28 615.03 831.17 621.55C829.1 627.9 824.33 631 816.31 631.32Z" fill="black"/>
<path d="M760.32 367.31C762.1 366.67 765.41 365.81 768.42 364.32C785.83 355.73 803.18 347.01 820.52 338.28C822.55 337.26 824.59 336.14 826.36 334.74C835.14 327.8 833.52 313.91 822.99 310.35C818.94 308.98 813.23 309.55 809.29 311.4C790.68 320.12 772.41 329.56 754.06 338.82C752.25 339.73 750.5 340.95 749.03 342.35C744.41 346.75 743.36 352.17 745.54 358.04C747.75 364.03 752.35 366.96 760.32 367.31ZM816.31 631.32C824.34 631 829.1 627.9 831.16 621.54C833.27 615.02 832.03 608.53 825.91 605.3C805.32 594.44 784.54 583.88 763.47 573.99C755.79 570.38 747.29 575.55 745.04 583.4C742.96 590.66 746 597.23 754.03 601.33C772.54 610.79 791.16 620.03 809.79 629.24C812.19 630.44 814.95 630.9 816.31 631.32ZM817.58 484.87C817.58 484.88 817.58 484.89 817.58 484.91C826.26 484.91 834.95 484.91 843.63 484.91C844.09 484.91 844.55 484.92 845 484.9C854.93 484.32 861.47 478.44 861.47 470.12C861.47 461.79 854.95 455.58 845 455.42C826.72 455.14 808.43 454.96 790.17 455.61C785.68 455.77 780.56 458.41 777.09 461.46C772.9 465.14 772.74 470.83 775.11 476.09C777.88 482.23 783.2 484.64 789.48 484.81C798.84 485.06 808.21 484.87 817.58 484.87Z" fill="black"/>
<path d="M157.52 456.34C160.12 446.22 161.9 435.8 165.44 426.02C184.68 372.88 232.28 339.16 288.77 338.1C291.29 338.05 293.83 337.85 296.33 338.11C330.01 341.55 360.85 332.97 391.9 319.98C471.46 286.71 551.88 255.52 631.96 223.51C647.56 217.28 656.36 223.32 656.38 240.29C656.41 280.85 656.49 321.42 656.26 361.98C656.23 367.34 657.68 369.2 663.09 370.37C710.57 380.62 743.96 421.69 744.34 469.72C744.72 517.25 711.2 559.19 663.83 569.61C657.31 571.04 656.22 573.6 656.26 579.53C656.51 618.95 656.39 658.36 656.39 697.78C656.39 717.88 648.25 723.3 629.41 715.76C569.52 691.79 509.64 667.81 449.75 643.84C447.64 642.99 445.48 642.26 442.05 641C442.94 644.17 443.55 646.43 444.2 648.67C451.93 675 460.91 701.04 467.12 727.72C477.83 773.75 437.02 813.54 390.98 806.46C362.34 802.06 343.39 785.38 334.83 757.51C319.79 708.53 304.71 659.56 290.14 610.43C288.15 603.73 285.21 601.84 278.62 601.1C221.96 594.72 183.8 564.41 164.3 510.92C161.13 502.23 159.74 492.88 157.53 483.84C157.52 474.68 157.52 465.51 157.52 456.34ZM626.38 257.8C624.08 258.54 622.13 259.03 620.27 259.77C536.39 293.28 452.53 326.86 368.59 360.24C363.91 362.1 362.67 364.57 362.68 369.34C362.83 436.24 362.86 503.13 362.64 570.03C362.62 575.76 364.4 578.26 369.73 580.38C449.42 612.06 529.01 644 608.63 675.87C614.32 678.15 620.05 680.32 626.38 682.78C626.38 540.77 626.38 399.56 626.38 257.8ZM333.17 367.93C315.7 367.93 298.54 366.99 281.51 368.11C229.34 371.53 190.27 412.92 186.95 467.29C184.01 515.54 221.07 562.43 270.52 570.46C289.55 573.55 309.29 572.25 328.71 572.88C330.21 572.93 331.73 572.47 333.17 572.26C333.17 503.9 333.17 435.99 333.17 367.93ZM318.21 602.53C333.41 652.37 348.21 701.63 363.52 750.74C370.1 771.84 392.15 782.81 412.89 776.26C434.09 769.57 444.01 749.96 437.34 727.59C427.85 695.81 418.37 664.03 408.48 632.37C407.51 629.27 404.24 625.94 401.21 624.61C388.23 618.92 374.56 614.72 361.86 608.5C347.99 601.71 333.75 601.37 318.21 602.53ZM656.72 541.2C690.37 535.54 716.03 502.87 714.62 467.88C713.24 433.67 686.63 402.05 656.72 399.31C656.72 446.6 656.72 493.87 656.72 541.2Z" fill="url(#paint0_linear_86_2)"/>
<path d="M760.32 367.31C752.35 366.97 747.76 364.03 745.53 358.04C743.35 352.17 744.4 346.75 749.02 342.35C750.49 340.95 752.23 339.73 754.05 338.82C772.4 329.56 790.67 320.12 809.28 311.4C813.22 309.55 818.94 308.99 822.98 310.35C833.51 313.91 835.13 327.8 826.35 334.74C824.58 336.14 822.54 337.26 820.51 338.28C803.17 347 785.82 355.73 768.41 364.32C765.41 365.8 762.09 366.66 760.32 367.31Z" fill="black"/>
<path d="M817.58 484.87C808.21 484.87 798.84 485.06 789.47 484.81C783.19 484.64 777.87 482.23 775.1 476.09C772.73 470.84 772.88 465.15 777.08 461.46C780.55 458.41 785.68 455.77 790.16 455.61C808.42 454.96 826.72 455.14 844.99 455.42C854.95 455.57 861.46 461.79 861.46 470.12C861.46 478.45 854.93 484.32 844.99 484.9C844.53 484.93 844.08 484.91 843.62 484.91C834.94 484.91 826.25 484.91 817.57 484.91C817.58 484.9 817.58 484.88 817.58 484.87Z" fill="black"/>
<path d="M581.69 307.58C589.62 307.88 594.22 311.17 596.48 317.39C598.79 323.74 596.94 329.23 591.78 333.31C589.32 335.25 586.26 336.55 583.31 337.74C549.34 351.36 515.33 364.9 481.34 378.46C469.74 383.09 461.23 380.93 457.82 372.52C454.13 363.42 458.44 356.1 470.46 351.28C504.86 337.49 539.26 323.71 573.69 310C576.62 308.82 579.76 308.15 581.69 307.58Z" fill="url(#paint1_linear_86_2)"/>
<defs>
<linearGradient id="paint0_linear_86_2" x1="157.52" y1="514.203" x2="744.339" y2="514.203" gradientUnits="userSpaceOnUse">
<stop offset="0.0007042" stop-color="#00968B"/>
<stop offset="1" stop-color="#14647A"/>
</linearGradient>
<linearGradient id="paint1_linear_86_2" x1="456.529" y1="344.213" x2="690.281" y2="344.213" gradientUnits="userSpaceOnUse">
<stop offset="0.0007042" stop-color="#05A07D"/>
<stop offset="1" stop-color="#01FE53"/>
</linearGradient>
</defs>
</svg>


