<svg width="1000" height="1000" viewBox="0 0 1000 1000" fill="none" xmlns="http://www.w3.org/2000/svg">
<path d="M636.4 231.82C639.64 231.82 642.88 231.82 646.12 231.82C655.09 234.34 663.07 238.7 668.2 246.58C672.39 253.03 676.14 259.95 678.85 267.12C681.6 274.41 682.85 282.27 684.82 290.12C699.17 290.12 713.57 290.07 727.96 290.13C743.13 290.2 756.12 295.52 764.66 308.27C768.76 314.39 770.57 322.04 773.42 328.99C773.42 449.49 773.42 569.98 773.42 690.48C773.18 691.08 772.84 691.65 772.72 692.28C768.46 714.82 751.52 729.29 728.45 729.31C592.62 729.4 456.78 729.42 320.95 729.17C314.22 729.16 306.94 727.56 300.86 724.69C283.43 716.45 275.88 701.66 275.88 682.69C275.89 569.52 275.88 456.36 275.88 343.19C275.88 340.11 275.81 337.04 275.91 333.96C276.57 313.13 288.79 296.89 308.91 291.84C316.3 289.99 324.3 290.36 332.04 290.19C343.01 289.94 353.99 290.13 364.72 290.13C370 265.28 374.82 240.77 403.18 231.83C406.42 231.83 409.66 231.83 412.9 231.83C421.87 234.35 429.86 238.71 434.98 246.59C439.17 253.04 442.92 259.96 445.63 267.14C448.38 274.43 449.63 282.29 451.53 289.89C461.56 289.89 471.55 289.89 481.38 289.89C486.59 265.28 491.42 240.77 519.79 231.82C523.03 231.82 526.27 231.82 529.51 231.82C538.48 234.34 546.47 238.7 551.59 246.58C555.78 253.03 559.53 259.95 562.24 267.13C564.99 274.42 566.24 282.28 568.14 289.88C578.17 289.88 588.16 289.88 597.99 289.88C603.2 265.29 608.03 240.77 636.4 231.82ZM305.04 437.05C305.04 439.19 305.04 440.79 305.04 442.4C305.04 522.22 305.04 602.05 305.04 681.87C305.04 694.98 310.19 700.2 323.15 700.2C457.54 700.2 591.93 700.2 726.31 700.2C738.99 700.2 744.26 694.91 744.26 682.2C744.26 602.22 744.26 522.23 744.26 442.25C744.26 440.54 744.26 438.83 744.26 437.06C597.59 437.05 451.6 437.05 305.04 437.05ZM567.67 319.48C567.25 321.83 566.85 324.03 566.46 326.24C564.2 339.12 560.25 351.36 552.35 362C545.58 371.12 536.91 377.21 525.12 377.53C517.53 377.74 511.26 372.29 510.21 364.95C509.2 357.89 513.61 350.54 520.88 349.24C527.15 348.12 530.13 344.1 532.16 339.17C534.72 332.95 536.47 326.39 538.71 319.56C508.86 319.56 479.95 319.56 450.98 319.56C450.56 322.2 450.23 324.61 449.77 326.99C447.35 339.66 443.47 351.76 435.6 362.22C428.76 371.3 420.06 377.34 408.27 377.54C400.71 377.67 394.49 372.07 393.59 364.71C392.72 357.61 397.22 350.5 404.52 349.15C409.68 348.19 412.79 345.36 414.55 341.1C417.4 334.2 419.63 327.05 422.37 319.3C419.71 319.3 418.43 319.3 417.14 319.3C385.4 319.3 353.67 319.28 321.93 319.31C310.61 319.32 305.06 324.96 305.05 336.43C305.03 358.61 305.04 380.8 305.04 402.98C305.04 404.51 305.04 406.04 305.04 407.48C451.82 407.48 597.82 407.48 743.73 407.48C743.95 406.96 744.17 406.67 744.18 406.39C744.21 382.1 744.34 357.82 744.17 333.53C744.11 325.47 737.95 319.64 729.83 319.36C724.33 319.17 718.82 319.3 713.32 319.3C703.64 319.3 693.96 319.3 684.28 319.3C683.82 322.03 683.46 324.27 683.06 326.49C680.74 339.36 676.79 351.6 668.84 362.2C662.02 371.3 653.31 377.32 641.51 377.53C633.95 377.67 627.72 372.07 626.81 364.71C625.93 357.61 630.43 350.5 637.72 349.14C642.87 348.18 645.99 345.37 647.75 341.1C650.59 334.2 652.85 327.05 655.53 319.5C625.42 319.48 596.64 319.48 567.67 319.48ZM422.12 289.93C419.87 283.01 418.33 276.54 415.62 270.6C413.99 267.04 410.54 264.31 407.91 261.2C405.39 264.23 402.07 266.91 400.53 270.37C397.82 276.48 396.2 283.08 393.97 289.92C403.59 289.93 412.27 289.93 422.12 289.93ZM539.23 289.94C536.03 281.6 533.73 273.86 530.14 266.77C526.47 259.51 522.87 259.46 519.25 266.61C515.6 273.83 513.25 281.7 510.09 289.93C520.22 289.94 528.9 289.94 539.23 289.94ZM656.16 289.95C652.41 280.94 649.61 272.74 645.63 265.15C642.84 259.82 640.28 260.07 636.81 265.01C631.59 272.41 629.37 280.93 627.98 289.96C636.87 289.95 645.55 289.95 656.16 289.95Z" fill="url(#paint0_linear_86_11)"/>
<path d="M524.65 466.01C581.82 466.01 638.99 466.01 696.16 466.01C708.86 466.01 714.14 471.29 714.14 483.99C714.15 540.35 714.15 596.71 714.14 653.07C714.14 665.77 708.86 671.05 696.16 671.05C581.82 671.05 467.49 671.05 353.15 671.05C340.45 671.05 335.17 665.77 335.17 653.07C335.16 596.71 335.16 540.35 335.17 483.99C335.17 471.29 340.45 466.01 353.15 466.01C410.31 466.01 467.48 466.01 524.65 466.01ZM364.53 641.56C384.06 641.56 403.2 641.56 422.23 641.56C422.23 621.74 422.23 602.27 422.23 582.88C402.81 582.88 383.78 582.88 364.53 582.88C364.53 602.49 364.53 621.84 364.53 641.56ZM452.11 582.84C452.11 602.7 452.11 622.18 452.11 641.51C471.61 641.51 490.76 641.51 509.81 641.51C509.81 621.76 509.81 602.41 509.81 582.84C490.52 582.84 471.49 582.84 452.11 582.84ZM539.63 582.73C539.63 602.35 539.63 621.94 539.63 641.58C558.94 641.58 578.09 641.58 597.16 641.58C597.16 621.78 597.16 602.31 597.16 582.73C577.87 582.73 558.96 582.73 539.63 582.73ZM627.05 582.81C627.05 602.75 627.05 622.22 627.05 641.65C646.46 641.65 665.49 641.65 684.7 641.65C684.7 621.94 684.7 602.46 684.7 582.81C665.38 582.81 646.35 582.81 627.05 582.81ZM364.52 553.12C384.07 553.12 403.22 553.12 422.22 553.12C422.22 533.62 422.22 514.47 422.22 495.43C402.79 495.43 383.76 495.43 364.52 495.43C364.52 514.72 364.52 533.75 364.52 553.12ZM509.88 495.4C490.31 495.4 471.28 495.4 452.04 495.4C452.04 514.78 452.04 533.93 452.04 553.15C471.47 553.15 490.61 553.15 509.88 553.15C509.88 533.8 509.88 514.77 509.88 495.4ZM539.57 495.38C539.57 514.92 539.57 534.07 539.57 553.08C559.07 553.08 578.22 553.08 597.27 553.08C597.27 533.66 597.27 514.62 597.27 495.38C577.98 495.38 558.94 495.38 539.57 495.38ZM627.03 495.38C627.03 514.93 627.03 534.08 627.03 553.08C646.53 553.08 665.68 553.08 684.72 553.08C684.72 533.65 684.72 514.62 684.72 495.38C665.43 495.38 646.4 495.38 627.03 495.38Z" fill="url(#paint1_linear_86_11)"/>
<defs>
<linearGradient id="paint0_linear_86_11" x1="524.638" y1="231.82" x2="524.638" y2="729.372" gradientUnits="userSpaceOnUse">
<stop stop-color="#14647A"/>
<stop offset="1" stop-color="#00968B" stop-opacity="0.79"/>
</linearGradient>
<linearGradient id="paint1_linear_86_11" x1="292.5" y1="266" x2="714.14" y2="568.532" gradientUnits="userSpaceOnUse">
<stop offset="0.0007042" stop-color="#00968B"/>
<stop offset="1" stop-color="#14647A"/>
</linearGradient>
</defs>
</svg>


