<svg width="1000" height="1000" viewBox="0 0 1000 1000" fill="none" xmlns="http://www.w3.org/2000/svg">
<path d="M149.98 357.33C154.37 346.86 162.41 342.92 173.49 343.44C182.59 343.87 191.73 343.53 201.87 343.53C201.87 337.31 201.8 331.62 201.88 325.94C202.13 309.24 213.77 297.1 230.46 296.97C261.01 296.72 291.56 296.79 322.11 296.96C333.37 297.03 342.48 301.94 349.37 310.89C356.12 319.66 363.16 328.22 369.48 337.28C372.93 342.23 376.85 343.66 382.7 343.65C459.2 343.46 535.69 343.52 612.19 343.55C615.31 343.55 618.49 343.49 621.52 344.07C627.33 345.18 630.29 349.29 630.04 354.91C629.81 360.16 626.79 363.99 621.23 364.79C618.16 365.24 615 365.16 611.88 365.16C468.51 365.18 325.14 365.17 181.76 365.17C178.67 365.17 175.59 365.17 172.06 365.17C172.06 404.47 172.06 443.09 172.06 482.29C177.74 482.29 183.59 482.29 190.48 482.29C190.48 479.88 190.48 477.34 190.48 474.8C190.48 452.66 190.47 430.53 190.48 408.39C190.49 392.63 196.62 386.38 212.13 386.37C326.15 386.36 440.18 386.42 554.2 386.27C564.22 386.26 570.82 390.16 575.82 398.8C632.98 497.62 690.38 596.3 747.48 695.16C750.68 700.71 754.02 702.75 760.39 702.56C776.91 702.07 793.46 702.39 810.4 702.39C810.4 691.69 810.4 681.7 810.4 670.62C804.66 670.62 799 670.69 793.33 670.61C777.96 670.37 768.15 660.63 767.9 645.28C767.77 637.1 767.77 628.92 767.9 620.74C768.14 605.32 777.96 595.6 793.3 595.46C798.8 595.41 804.3 595.45 810.3 595.45C810.3 587.38 810.3 579.82 810.3 571.14C807.75 571.14 805.21 571.14 802.67 571.14C778.85 571.14 755.04 570.95 731.23 571.2C713.88 571.38 701.45 563.88 692.85 549C666.52 503.42 640.01 457.95 613.63 412.4C605.3 398.01 612.03 386.38 628.66 386.36C673.88 386.32 719.11 386.35 764.33 386.35C766.89 386.35 769.46 386.35 772.02 386.35C758.42 374.01 742.55 367.21 724.82 366.06C708.28 364.98 691.65 365.4 675.06 365.13C672.42 365.09 669.72 365.17 667.16 364.65C662.03 363.62 659.28 360.13 659.03 355C658.76 349.57 661.25 344.57 666.63 344.33C708.75 342.47 751.56 338.93 786.92 368.93C797.05 377.52 805.41 388.33 813.84 398.72C816.77 402.32 819.2 403.97 823.76 403.85C835.3 403.56 846.85 403.62 858.4 403.79C877.33 404.07 888.84 415.78 888.93 434.65C888.98 444.51 888.9 454.38 888.94 464.24C888.99 477.34 883.37 487.92 874.26 496.84C869.69 501.31 863.59 501.5 859.36 497.46C854.9 493.2 853.69 487.42 857.96 483.29C867.18 474.37 867.89 463.59 867.34 452.04C867.05 446.04 867.22 440.01 867.3 434C867.38 428.28 864.43 425.52 858.94 425.46C848.61 425.36 838.28 425.43 827.37 425.43C827.67 427.36 827.95 428.88 828.14 430.41C829.59 442.3 832.2 454.19 832.26 466.1C832.63 544.05 832.46 622.01 832.45 699.96C832.45 718.06 826.41 724.03 808.18 724.03C763.44 724.03 718.69 724.12 673.95 723.9C668.86 723.88 666.67 725.58 664.49 730.1C651.24 757.51 629.03 772.54 598.69 772.58C568.36 772.62 546.08 757.64 532.78 730.28C530.39 725.36 527.94 723.82 522.63 723.89C499.06 724.2 475.48 724.04 451.91 724.01C442.82 724 437.85 720.12 437.89 713.2C437.93 706.35 443 702.4 452.02 702.38C476.3 702.34 500.58 702.37 525.7 702.37C526.31 675.99 536.55 654.66 558.44 639.81C572 630.61 587.18 626.69 603.56 627.73C634.4 629.69 669.79 653.7 671.57 701.88C689.45 701.88 707.35 701.88 726.12 701.88C724.91 699.53 723.95 697.45 722.81 695.48C687 633.73 651.14 572.02 615.42 510.22C613.16 506.31 610.94 504.35 606.02 504.36C463.37 504.52 320.72 504.49 178.07 504.49C176.19 504.49 174.32 504.49 172.01 504.49C172.01 570.57 172.01 636.1 172.01 702C185.86 702 199.46 702 213.64 702C214.23 678.33 222.79 658.37 241.39 643.44C255.01 632.5 270.78 627.13 288.22 627.59C327.69 628.63 352.72 654.7 359.89 702.37C371.97 702.37 384.17 702.39 396.38 702.36C401.97 702.35 406.35 704.37 408.2 709.91C410.64 717.19 405.63 723.82 397.4 723.95C383.46 724.16 369.52 724.01 355.42 724.01C354.53 725.96 353.77 727.7 352.94 729.4C339.51 757.04 317.41 772.48 286.75 772.56C256.12 772.64 233.73 757.49 220.47 729.73C218.39 725.38 216.24 723.74 211.4 723.89C198.9 724.27 186.36 723.5 173.89 724.17C162.78 724.77 154.88 720.9 149.93 710.97C149.98 593.13 149.98 475.23 149.98 357.33ZM810.15 549.25C810.15 516.27 810.76 484.1 809.79 451.97C809.49 441.97 805.17 432.01 802.22 422.18C799.08 411.69 793.05 406.55 780.71 407.69C764.81 409.16 748.68 408.05 732.36 408.05C732.36 455.59 732.36 502.29 732.36 549.26C758.52 549.25 784.18 549.25 810.15 549.25ZM368.78 482.56C368.78 457.49 368.78 433.12 368.78 408.57C338.94 408.57 309.56 408.57 280.12 408.57C280.12 433.48 280.12 457.86 280.12 482.56C309.77 482.56 338.98 482.56 368.78 482.56ZM480 482.54C480 457.54 480 433.16 480 408.54C450.19 408.54 420.8 408.54 391.3 408.54C391.3 433.43 391.3 457.82 391.3 482.54C420.93 482.54 450.15 482.54 480 482.54ZM599.35 482.67C585.02 457.98 571.34 434.36 557.54 410.81C556.82 409.58 555.03 408.2 553.73 408.19C536.76 408.01 519.79 408.07 502.62 408.07C502.62 433.38 502.62 457.92 502.62 482.66C534.78 482.67 566.41 482.67 599.35 482.67ZM649.48 700.06C649.43 672.01 626.44 649.08 598.49 649.18C570.47 649.28 547.7 672.26 547.8 700.35C547.9 728.47 570.8 751.32 598.78 751.24C626.77 751.15 649.53 728.18 649.48 700.06ZM337.55 700.52C337.7 672.57 314.84 649.4 286.9 649.18C259.09 648.95 235.84 671.93 235.57 699.89C235.31 727.64 258.39 751.02 286.26 751.24C314.1 751.46 337.4 728.41 337.55 700.52ZM636.32 408.32C660.84 450.55 684.76 491.74 709.65 534.62C709.65 491.02 709.65 449.81 709.65 408.32C685.39 408.32 661.65 408.32 636.32 408.32ZM212.7 408.42C212.7 433.39 212.7 457.92 212.7 482.36C227.99 482.36 242.73 482.36 257.58 482.36C257.58 457.49 257.58 433.14 257.58 408.42C242.58 408.42 228.02 408.42 212.7 408.42ZM346.8 343.01C340.93 335.49 336.08 328.71 330.57 322.53C328.71 320.45 325.18 318.79 322.39 318.76C291.91 318.48 261.42 318.42 230.94 318.83C228.46 318.86 224.38 322.52 223.92 325.03C222.86 330.77 223.59 336.84 223.59 343.01C264.69 343.01 305.05 343.01 346.8 343.01ZM810.56 617.14C807.73 617.14 805.61 617.15 803.48 617.14C789.56 617.07 789.56 617.07 789.56 631.21C789.56 649.89 789.56 649.9 808.42 648.91C809.07 648.88 809.69 648.44 810.56 648.1C810.56 638.07 810.56 628.12 810.56 617.14Z" fill="url(#paint0_linear_86_15)"/>
<path d="M598.49 733.04C580.23 732.98 565.63 718.3 565.68 700.07C565.74 681.89 580.47 667.35 598.77 667.39C616.98 667.43 631.81 682.28 631.69 700.35C631.58 718.47 616.72 733.09 598.49 733.04ZM587.35 700.2C587.35 706.25 592.18 711.18 598.26 711.34C604.7 711.51 609.99 706.5 609.99 700.22C610 693.93 604.72 688.92 598.28 689.09C592.17 689.25 587.35 694.15 587.35 700.2Z" fill="url(#paint1_linear_86_15)"/>
<path d="M286.78 733.04C268.32 733.13 253.75 718.66 253.74 700.23C253.73 681.8 268.27 667.32 286.74 667.39C304.88 667.45 319.25 681.69 319.48 699.83C319.7 718.18 305.17 732.95 286.78 733.04ZM286.62 711.34C293.11 711.31 297.95 706.28 297.73 699.8C297.52 693.64 292.73 689.06 286.52 689.08C280.04 689.11 275.22 694.12 275.43 700.62C275.63 706.78 280.42 711.37 286.62 711.34Z" fill="url(#paint2_linear_86_15)"/>
<defs>
<linearGradient id="paint0_linear_86_15" x1="519.439" y1="296.807" x2="519.439" y2="772.58" gradientUnits="userSpaceOnUse">
<stop stop-color="#00968B"/>
<stop offset="1" stop-color="#14647A"/>
</linearGradient>
<linearGradient id="paint1_linear_86_15" x1="598.686" y1="667.39" x2="598.686" y2="733.04" gradientUnits="userSpaceOnUse">
<stop stop-color="#00968B"/>
<stop offset="1" stop-color="#14647A"/>
</linearGradient>
<linearGradient id="paint2_linear_86_15" x1="286.611" y1="667.39" x2="286.611" y2="733.04" gradientUnits="userSpaceOnUse">
<stop stop-color="#00968B"/>
<stop offset="1" stop-color="#14647A"/>
</linearGradient>
</defs>
</svg>


