<svg width="1000" height="1000" viewBox="0 0 1000 1000" fill="none" xmlns="http://www.w3.org/2000/svg">
<path d="M262.96 676.84C252.75 676.84 243.38 674.43 234.85 669.6C226.32 664.77 219.57 657.99 214.6 649.25C209.63 640.51 207.15 630.13 207.15 618.1C207.15 605.93 209.63 595.48 214.6 586.74C219.56 578 226.31 571.21 234.85 566.39C243.38 561.56 252.75 559.15 262.96 559.15C272.61 559.15 280.86 561.28 287.72 565.55C294.57 569.82 299.75 576.29 303.24 584.96C306.74 593.63 308.49 604.68 308.49 618.11C308.49 631.54 306.84 642.59 303.56 651.26C300.27 659.93 295.24 666.37 288.45 670.56C281.67 674.74 273.17 676.84 262.96 676.84ZM271.35 645.16C275.82 645.16 279.85 644.11 283.41 642.01C286.97 639.91 289.81 636.8 291.91 632.67C294.01 628.55 295.06 623.68 295.06 618.09C295.06 612.08 294.01 607.11 291.91 603.2C289.81 599.29 286.98 596.28 283.41 594.18C279.84 592.08 275.82 591.03 271.35 591.03C266.73 591.03 262.64 592.08 259.08 594.18C255.52 596.28 252.68 599.29 250.58 603.2C248.48 607.12 247.43 612.08 247.43 618.09C247.43 623.69 248.48 628.55 250.58 632.67C252.68 636.8 255.51 639.91 259.08 642.01C262.65 644.11 266.74 645.16 271.35 645.16ZM296.32 674.95V655.44L296.53 617.89L294.43 580.34V519.29H334.29V674.96H296.32V674.95Z" fill="black"/>
<path d="M401.21 676.84C391.56 676.84 382.15 675.72 372.99 673.48C363.83 671.24 356.45 668.44 350.86 665.09L362.61 637.82C368.07 641.04 374.36 643.63 381.49 645.58C388.62 647.54 395.61 648.52 402.47 648.52C409.18 648.52 413.83 647.79 416.42 646.32C419.01 644.85 420.3 642.86 420.3 640.34C420.3 638.24 419.11 636.64 416.73 635.51C414.35 634.39 411.13 633.59 407.08 633.1C403.02 632.61 398.65 632.05 393.97 631.42C389.28 630.79 384.49 629.81 379.6 628.48C374.7 627.15 370.27 625.3 366.28 622.92C362.29 620.54 359.11 617.26 356.73 613.06C354.35 608.86 353.16 603.55 353.16 597.12C353.16 589.85 355.29 583.38 359.56 577.71C363.82 572.04 370.05 567.54 378.23 564.18C386.41 560.82 396.52 559.15 408.55 559.15C416.52 559.15 424.6 559.99 432.78 561.67C440.96 563.35 447.85 565.8 453.44 569.01L441.48 596.28C435.88 592.92 430.29 590.69 424.7 589.57C419.1 588.45 413.86 587.89 408.96 587.89C402.25 587.89 397.45 588.62 394.59 590.09C391.72 591.56 390.29 593.41 390.29 595.65C390.29 597.89 391.55 599.6 394.07 600.79C396.59 601.98 399.8 602.89 403.72 603.52C407.63 604.15 412.01 604.78 416.83 605.41C421.66 606.04 426.44 606.98 431.2 608.24C435.95 609.5 440.29 611.35 444.21 613.8C448.12 616.25 451.31 619.54 453.75 623.66C456.2 627.79 457.42 633.14 457.42 639.71C457.42 646.56 455.32 652.79 451.13 658.38C446.93 663.97 440.64 668.45 432.25 671.81C423.87 675.16 413.52 676.84 401.21 676.84Z" fill="black"/>
<path d="M532.75 676.84C520.02 676.84 508.76 674.32 498.97 669.29C489.18 664.25 481.48 657.3 475.89 648.41C470.29 639.53 467.5 629.42 467.5 618.09C467.5 606.62 470.3 596.48 475.89 587.67C481.48 578.86 489.18 571.9 498.97 566.8C508.76 561.7 520.02 559.14 532.75 559.14C545.62 559.14 556.74 561.9 566.11 567.43C575.48 572.96 582.12 580.61 586.04 590.4L555.2 606.34C552.54 601.03 549.25 597.14 545.34 594.7C541.42 592.25 537.16 591.03 532.54 591.03C527.92 591.03 523.76 592.08 520.06 594.18C516.35 596.28 513.38 599.29 511.14 603.2C508.9 607.12 507.78 612.08 507.78 618.09C507.78 623.83 508.9 628.72 511.14 632.78C513.38 636.84 516.35 639.91 520.06 642.01C523.76 644.11 527.93 645.16 532.54 645.16C537.16 645.16 541.42 643.94 545.34 641.49C549.25 639.04 552.54 635.16 555.2 629.85L586.04 645.58C582.12 655.37 575.48 663.03 566.11 668.55C556.74 674.08 545.62 676.84 532.75 676.84Z" fill="black"/>
<path d="M591.07 595.23V565.44H673.52V595.23H591.07ZM653.8 676.84C639.25 676.84 627.92 673.24 619.81 666.04C611.7 658.84 607.64 647.96 607.64 633.42V535.66H647.5V632.79C647.5 637.13 648.58 640.41 650.75 642.65C652.92 644.89 655.82 646.01 659.46 646.01C664.08 646.01 668.13 644.82 671.63 642.44L681.7 670.13C678.06 672.51 673.83 674.22 669.01 675.27C664.19 676.32 659.12 676.84 653.8 676.84Z" fill="black"/>
<path d="M750.52 676.84C738.07 676.84 727.02 674.32 717.37 669.29C707.72 664.26 700.13 657.3 694.61 648.41C689.08 639.53 686.32 629.42 686.32 618.09C686.32 606.62 689.08 596.45 694.61 587.57C700.13 578.69 707.72 571.73 717.37 566.69C727.02 561.65 738.07 559.14 750.52 559.14C762.97 559.14 774.05 561.66 783.77 566.69C793.49 571.73 801.11 578.69 806.64 587.57C812.16 596.45 814.93 606.63 814.93 618.09C814.93 629.42 812.17 639.53 806.64 648.41C801.11 657.29 793.49 664.25 783.77 669.29C774.05 674.32 762.96 676.84 750.52 676.84ZM750.52 645.16C754.99 645.16 759.02 644.11 762.58 642.01C766.14 639.91 769.01 636.8 771.18 632.67C773.35 628.55 774.43 623.62 774.43 617.88C774.43 612 773.35 607.11 771.18 603.19C769.01 599.28 766.14 596.27 762.58 594.17C759.02 592.07 754.99 591.02 750.52 591.02C746.04 591.02 742.02 592.07 738.46 594.17C734.9 596.27 732.03 599.28 729.86 603.19C727.69 607.11 726.61 612 726.61 617.88C726.61 623.62 727.69 628.55 729.86 632.67C732.03 636.8 734.9 639.91 738.46 642.01C742.02 644.11 746.04 645.16 750.52 645.16Z" fill="black"/>
<path d="M849.33 676.84C842.62 676.84 836.95 674.64 832.34 670.23C827.72 665.82 825.42 660.06 825.42 652.92C825.42 645.93 827.73 640.3 832.34 636.03C836.96 631.77 842.62 629.63 849.33 629.63C856.04 629.63 861.71 631.76 866.32 636.03C870.94 640.3 873.24 645.93 873.24 652.92C873.24 660.05 870.93 665.82 866.32 670.23C861.71 674.64 856.04 676.84 849.33 676.84Z" fill="black"/>
<path d="M262.96 676.84C252.75 676.84 243.38 674.43 234.85 669.6C226.32 664.77 219.57 657.99 214.6 649.25C209.63 640.51 207.15 630.13 207.15 618.1C207.15 605.93 209.63 595.48 214.6 586.74C219.56 578 226.31 571.21 234.85 566.39C243.38 561.56 252.75 559.15 262.96 559.15C272.61 559.15 280.86 561.28 287.72 565.55C294.57 569.82 299.75 576.29 303.24 584.96C306.74 593.63 308.49 604.68 308.49 618.11C308.49 631.54 306.84 642.59 303.56 651.26C300.27 659.93 295.24 666.37 288.45 670.56C281.67 674.74 273.17 676.84 262.96 676.84ZM271.35 645.16C275.82 645.16 279.85 644.11 283.41 642.01C286.97 639.91 289.81 636.8 291.91 632.67C294.01 628.55 295.06 623.68 295.06 618.09C295.06 612.08 294.01 607.11 291.91 603.2C289.81 599.29 286.98 596.28 283.41 594.18C279.84 592.08 275.82 591.03 271.35 591.03C266.73 591.03 262.64 592.08 259.08 594.18C255.52 596.28 252.68 599.29 250.58 603.2C248.48 607.12 247.43 612.08 247.43 618.09C247.43 623.69 248.48 628.55 250.58 632.67C252.68 636.8 255.51 639.91 259.08 642.01C262.65 644.11 266.74 645.16 271.35 645.16ZM296.32 674.95V655.44L296.53 617.89L294.43 580.34V519.29H334.29V674.96H296.32V674.95Z" fill="url(#paint0_linear_86_20)"/>
<path d="M401.21 676.84C391.56 676.84 382.15 675.72 372.99 673.48C363.83 671.24 356.45 668.44 350.86 665.09L362.61 637.82C368.07 641.04 374.36 643.63 381.49 645.58C388.62 647.54 395.61 648.52 402.47 648.52C409.18 648.52 413.83 647.79 416.42 646.32C419.01 644.85 420.3 642.86 420.3 640.34C420.3 638.24 419.11 636.64 416.73 635.51C414.35 634.39 411.13 633.59 407.08 633.1C403.02 632.61 398.65 632.05 393.97 631.42C389.28 630.79 384.49 629.81 379.6 628.48C374.7 627.15 370.27 625.3 366.28 622.92C362.29 620.54 359.11 617.26 356.73 613.06C354.35 608.86 353.16 603.55 353.16 597.12C353.16 589.85 355.29 583.38 359.56 577.71C363.82 572.04 370.05 567.54 378.23 564.18C386.41 560.82 396.52 559.15 408.55 559.15C416.52 559.15 424.6 559.99 432.78 561.67C440.96 563.35 447.85 565.8 453.44 569.01L441.48 596.28C435.88 592.92 430.29 590.69 424.7 589.57C419.1 588.45 413.86 587.89 408.96 587.89C402.25 587.89 397.45 588.62 394.59 590.09C391.72 591.56 390.29 593.41 390.29 595.65C390.29 597.89 391.55 599.6 394.07 600.79C396.59 601.98 399.8 602.89 403.72 603.52C407.63 604.15 412.01 604.78 416.83 605.41C421.66 606.04 426.44 606.98 431.2 608.24C435.95 609.5 440.29 611.35 444.21 613.8C448.12 616.25 451.31 619.54 453.75 623.66C456.2 627.79 457.42 633.14 457.42 639.71C457.42 646.56 455.32 652.79 451.13 658.38C446.93 663.97 440.64 668.45 432.25 671.81C423.87 675.16 413.52 676.84 401.21 676.84Z" fill="url(#paint1_linear_86_20)"/>
<path d="M532.75 676.84C520.02 676.84 508.76 674.32 498.97 669.29C489.18 664.25 481.48 657.3 475.89 648.41C470.29 639.53 467.5 629.42 467.5 618.09C467.5 606.62 470.3 596.48 475.89 587.67C481.48 578.86 489.18 571.9 498.97 566.8C508.76 561.7 520.02 559.14 532.75 559.14C545.62 559.14 556.74 561.9 566.11 567.43C575.48 572.96 582.12 580.61 586.04 590.4L555.2 606.34C552.54 601.03 549.25 597.14 545.34 594.7C541.42 592.25 537.16 591.03 532.54 591.03C527.92 591.03 523.76 592.08 520.06 594.18C516.35 596.28 513.38 599.29 511.14 603.2C508.9 607.12 507.78 612.08 507.78 618.09C507.78 623.83 508.9 628.72 511.14 632.78C513.38 636.84 516.35 639.91 520.06 642.01C523.76 644.11 527.93 645.16 532.54 645.16C537.16 645.16 541.42 643.94 545.34 641.49C549.25 639.04 552.54 635.16 555.2 629.85L586.04 645.58C582.12 655.37 575.48 663.03 566.11 668.55C556.74 674.08 545.62 676.84 532.75 676.84Z" fill="url(#paint2_linear_86_20)"/>
<path d="M591.07 595.23V565.44H673.52V595.23H591.07ZM653.8 676.84C639.25 676.84 627.92 673.24 619.81 666.04C611.7 658.84 607.64 647.96 607.64 633.42V535.66H647.5V632.79C647.5 637.13 648.58 640.41 650.75 642.65C652.92 644.89 655.82 646.01 659.46 646.01C664.08 646.01 668.13 644.82 671.63 642.44L681.7 670.13C678.06 672.51 673.83 674.22 669.01 675.27C664.19 676.32 659.12 676.84 653.8 676.84Z" fill="url(#paint3_linear_86_20)"/>
<path d="M750.52 676.84C738.07 676.84 727.02 674.32 717.37 669.29C707.72 664.26 700.13 657.3 694.61 648.41C689.08 639.53 686.32 629.42 686.32 618.09C686.32 606.62 689.08 596.45 694.61 587.57C700.13 578.69 707.72 571.73 717.37 566.69C727.02 561.65 738.07 559.14 750.52 559.14C762.97 559.14 774.05 561.66 783.77 566.69C793.49 571.73 801.11 578.69 806.64 587.57C812.16 596.45 814.93 606.63 814.93 618.09C814.93 629.42 812.17 639.53 806.64 648.41C801.11 657.29 793.49 664.25 783.77 669.29C774.05 674.32 762.96 676.84 750.52 676.84ZM750.52 645.16C754.99 645.16 759.02 644.11 762.58 642.01C766.14 639.91 769.01 636.8 771.18 632.67C773.35 628.55 774.43 623.62 774.43 617.88C774.43 612 773.35 607.11 771.18 603.19C769.01 599.28 766.14 596.27 762.58 594.17C759.02 592.07 754.99 591.02 750.52 591.02C746.04 591.02 742.02 592.07 738.46 594.17C734.9 596.27 732.03 599.28 729.86 603.19C727.69 607.11 726.61 612 726.61 617.88C726.61 623.62 727.69 628.55 729.86 632.67C732.03 636.8 734.9 639.91 738.46 642.01C742.02 644.11 746.04 645.16 750.52 645.16Z" fill="url(#paint4_linear_86_20)"/>
<path d="M849.33 676.84C842.62 676.84 836.95 674.64 832.34 670.23C827.72 665.82 825.42 660.06 825.42 652.92C825.42 645.93 827.73 640.3 832.34 636.03C836.96 631.77 842.62 629.63 849.33 629.63C856.04 629.63 861.71 631.76 866.32 636.03C870.94 640.3 873.24 645.93 873.24 652.92C873.24 660.05 870.93 665.82 866.32 670.23C861.71 674.64 856.04 676.84 849.33 676.84Z" fill="url(#paint5_linear_86_20)"/>
<path d="M211.51 447.13V404.46L316.19 258.44H384.87L282.85 404.46L251.51 395.13H433.87V447.14H211.51V447.13ZM334.86 491.81V447.14L336.86 395.13V355.12H399.2V491.81H334.86Z" fill="black"/>
<path d="M550.22 496.47C530.22 496.47 512.49 491.75 497.05 482.3C481.6 472.86 469.43 459.02 460.54 440.79C451.65 422.57 447.21 400.67 447.21 375.11C447.21 349.55 451.65 327.66 460.54 309.43C469.43 291.21 481.6 277.37 497.05 267.92C512.49 258.48 530.22 253.75 550.22 253.75C570 253.75 587.67 258.47 603.23 267.92C618.78 277.37 630.95 291.2 639.73 309.43C648.51 327.66 652.9 349.55 652.9 375.11C652.9 400.67 648.51 422.57 639.73 440.79C630.95 459.02 618.78 472.85 603.23 482.3C587.67 491.75 570 496.47 550.22 496.47ZM550.22 442.46C557.33 442.46 563.61 440.24 569.06 435.79C574.5 431.35 578.78 424.18 581.9 414.29C585.01 404.4 586.57 391.34 586.57 375.12C586.57 358.68 585.01 345.56 581.9 335.78C578.78 326 574.51 318.89 569.06 314.44C563.61 310 557.33 307.77 550.22 307.77C543.1 307.77 536.83 309.99 531.38 314.44C525.93 318.89 521.6 326 518.38 335.78C515.16 345.56 513.55 358.67 513.55 375.12C513.55 391.35 515.16 404.41 518.38 414.29C521.6 424.18 525.93 431.35 531.38 435.79C536.83 440.25 543.11 442.46 550.22 442.46Z" fill="black"/>
<path d="M211.51 447.13V404.46L316.19 258.44H384.87L282.85 404.46L251.51 395.13H433.87V447.14H211.51V447.13ZM334.86 491.81V447.14L336.86 395.13V355.12H399.2V491.81H334.86Z" fill="url(#paint6_linear_86_20)"/>
<path d="M550.22 496.47C530.22 496.47 512.49 491.75 497.05 482.3C481.6 472.86 469.43 459.02 460.54 440.79C451.65 422.57 447.21 400.67 447.21 375.11C447.21 349.55 451.65 327.66 460.54 309.43C469.43 291.21 481.6 277.37 497.05 267.92C512.49 258.48 530.22 253.75 550.22 253.75C570 253.75 587.67 258.47 603.23 267.92C618.78 277.37 630.95 291.2 639.73 309.43C648.51 327.66 652.9 349.55 652.9 375.11C652.9 400.67 648.51 422.57 639.73 440.79C630.95 459.02 618.78 472.85 603.23 482.3C587.67 491.75 570 496.47 550.22 496.47ZM550.22 442.46C557.33 442.46 563.61 440.24 569.06 435.79C574.5 431.35 578.78 424.18 581.9 414.29C585.01 404.4 586.57 391.34 586.57 375.12C586.57 358.68 585.01 345.56 581.9 335.78C578.78 326 574.51 318.89 569.06 314.44C563.61 310 557.33 307.77 550.22 307.77C543.1 307.77 536.83 309.99 531.38 314.44C525.93 318.89 521.6 326 518.38 335.78C515.16 345.56 513.55 358.67 513.55 375.12C513.55 391.35 515.16 404.41 518.38 414.29C521.6 424.18 525.93 431.35 531.38 435.79C536.83 440.25 543.11 442.46 550.22 442.46Z" fill="url(#paint7_linear_86_20)"/>
<path d="M722.75 422.57C715.05 422.57 708.21 420.87 702.21 417.46C696.22 414.06 691.52 409.1 688.11 402.59C684.7 396.08 683 388.38 683 379.5C683 370.62 684.7 362.96 688.11 356.52C691.51 350.08 696.21 345.12 702.21 341.65C708.2 338.17 715.05 336.43 722.75 336.43C730.44 336.43 737.29 338.17 743.29 341.65C749.28 345.13 754.02 350.09 757.5 356.52C760.98 362.96 762.72 370.62 762.72 379.5C762.72 388.38 760.98 396.08 757.5 402.59C754.02 409.1 749.29 414.06 743.29 417.46C737.29 420.87 730.44 422.57 722.75 422.57ZM708.76 493.83L814.88 338.42H846.63L740.51 493.83H708.76ZM722.75 401.48C726.45 401.48 729.56 399.78 732.07 396.37C734.58 392.97 735.84 387.34 735.84 379.5C735.84 371.66 734.58 366.03 732.07 362.63C729.55 359.23 726.44 357.52 722.75 357.52C719.2 357.52 716.16 359.22 713.65 362.63C711.13 366.04 709.88 371.66 709.88 379.5C709.88 387.35 711.14 392.97 713.65 396.37C716.16 399.78 719.19 401.48 722.75 401.48ZM832.42 495.83C824.87 495.83 818.06 494.13 812 490.72C805.93 487.32 801.19 482.36 797.79 475.85C794.38 469.34 792.68 461.64 792.68 452.76C792.68 443.88 794.38 436.22 797.79 429.78C801.19 423.34 805.93 418.38 812 414.91C818.07 411.43 824.88 409.69 832.42 409.69C840.11 409.69 847 411.43 853.07 414.91C859.14 418.39 863.84 423.35 867.17 429.78C870.5 436.22 872.17 443.88 872.17 452.76C872.17 461.64 870.5 469.34 867.17 475.85C863.84 482.36 859.14 487.32 853.07 490.72C846.99 494.13 840.11 495.83 832.42 495.83ZM832.42 474.74C836.12 474.74 839.23 473.04 841.74 469.63C844.25 466.23 845.51 460.6 845.51 452.76C845.51 444.92 844.25 439.29 841.74 435.89C839.22 432.49 836.11 430.78 832.42 430.78C828.87 430.78 825.79 432.48 823.21 435.89C820.62 439.3 819.33 444.92 819.33 452.76C819.33 460.61 820.62 466.23 823.21 469.63C825.79 473.04 828.86 474.74 832.42 474.74Z" fill="black"/>
<path d="M722.75 422.57C715.05 422.57 708.21 420.87 702.21 417.46C696.22 414.06 691.52 409.1 688.11 402.59C684.7 396.08 683 388.38 683 379.5C683 370.62 684.7 362.96 688.11 356.52C691.51 350.08 696.21 345.12 702.21 341.65C708.2 338.17 715.05 336.43 722.75 336.43C730.44 336.43 737.29 338.17 743.29 341.65C749.28 345.13 754.02 350.09 757.5 356.52C760.98 362.96 762.72 370.62 762.72 379.5C762.72 388.38 760.98 396.08 757.5 402.59C754.02 409.1 749.29 414.06 743.29 417.46C737.29 420.87 730.44 422.57 722.75 422.57ZM708.76 493.83L814.88 338.42H846.63L740.51 493.83H708.76ZM722.75 401.48C726.45 401.48 729.56 399.78 732.07 396.37C734.58 392.97 735.84 387.34 735.84 379.5C735.84 371.66 734.58 366.03 732.07 362.63C729.55 359.23 726.44 357.52 722.75 357.52C719.2 357.52 716.16 359.22 713.65 362.63C711.13 366.04 709.88 371.66 709.88 379.5C709.88 387.35 711.14 392.97 713.65 396.37C716.16 399.78 719.19 401.48 722.75 401.48ZM832.42 495.83C824.87 495.83 818.06 494.13 812 490.72C805.93 487.32 801.19 482.36 797.79 475.85C794.38 469.34 792.68 461.64 792.68 452.76C792.68 443.88 794.38 436.22 797.79 429.78C801.19 423.34 805.93 418.38 812 414.91C818.07 411.43 824.88 409.69 832.42 409.69C840.11 409.69 847 411.43 853.07 414.91C859.14 418.39 863.84 423.35 867.17 429.78C870.5 436.22 872.17 443.88 872.17 452.76C872.17 461.64 870.5 469.34 867.17 475.85C863.84 482.36 859.14 487.32 853.07 490.72C846.99 494.13 840.11 495.83 832.42 495.83ZM832.42 474.74C836.12 474.74 839.23 473.04 841.74 469.63C844.25 466.23 845.51 460.6 845.51 452.76C845.51 444.92 844.25 439.29 841.74 435.89C839.22 432.49 836.11 430.78 832.42 430.78C828.87 430.78 825.79 432.48 823.21 435.89C820.62 439.3 819.33 444.92 819.33 452.76C819.33 460.61 820.62 466.23 823.21 469.63C825.79 473.04 828.86 474.74 832.42 474.74Z" fill="url(#paint8_linear_86_20)"/>
<defs>
<linearGradient id="paint0_linear_86_20" x1="207.156" y1="598.062" x2="873.245" y2="598.062" gradientUnits="userSpaceOnUse">
<stop offset="0.0007042" stop-color="#00968B"/>
<stop offset="1" stop-color="#14647A"/>
</linearGradient>
<linearGradient id="paint1_linear_86_20" x1="207.156" y1="598.062" x2="873.245" y2="598.062" gradientUnits="userSpaceOnUse">
<stop offset="0.0007042" stop-color="#00968B"/>
<stop offset="1" stop-color="#14647A"/>
</linearGradient>
<linearGradient id="paint2_linear_86_20" x1="207.156" y1="598.062" x2="873.245" y2="598.062" gradientUnits="userSpaceOnUse">
<stop offset="0.0007042" stop-color="#00968B"/>
<stop offset="1" stop-color="#14647A"/>
</linearGradient>
<linearGradient id="paint3_linear_86_20" x1="207.156" y1="598.062" x2="873.245" y2="598.062" gradientUnits="userSpaceOnUse">
<stop offset="0.0007042" stop-color="#00968B"/>
<stop offset="1" stop-color="#14647A"/>
</linearGradient>
<linearGradient id="paint4_linear_86_20" x1="207.156" y1="598.062" x2="873.245" y2="598.062" gradientUnits="userSpaceOnUse">
<stop offset="0.0007042" stop-color="#00968B"/>
<stop offset="1" stop-color="#14647A"/>
</linearGradient>
<linearGradient id="paint5_linear_86_20" x1="207.156" y1="598.062" x2="873.245" y2="598.062" gradientUnits="userSpaceOnUse">
<stop offset="0.0007042" stop-color="#00968B"/>
<stop offset="1" stop-color="#14647A"/>
</linearGradient>
<linearGradient id="paint6_linear_86_20" x1="211.509" y1="375.122" x2="652.905" y2="375.122" gradientUnits="userSpaceOnUse">
<stop offset="0.0007042" stop-color="#00968B"/>
<stop offset="1" stop-color="#14647A"/>
</linearGradient>
<linearGradient id="paint7_linear_86_20" x1="211.509" y1="375.122" x2="652.905" y2="375.122" gradientUnits="userSpaceOnUse">
<stop offset="0.0007042" stop-color="#00968B"/>
<stop offset="1" stop-color="#14647A"/>
</linearGradient>
<linearGradient id="paint8_linear_86_20" x1="683.005" y1="416.128" x2="872.156" y2="416.128" gradientUnits="userSpaceOnUse">
<stop offset="0.0007042" stop-color="#00968B"/>
<stop offset="1" stop-color="#14647A"/>
</linearGradient>
</defs>
</svg>

