<svg width="48" height="48" viewBox="0 0 48 48" fill="none" xmlns="http://www.w3.org/2000/svg">
<path d="M4 7.25H44C45.5189 7.25 46.75 8.48107 46.75 10V38C46.75 39.5189 45.5189 40.75 44 40.75H4C2.48107 40.75 1.25 39.5189 1.25 38V10C1.25 8.48107 2.48107 7.25 4 7.25Z" fill="white" stroke="#006699" stroke-width="0.5"/>
<g clip-path="url(#clip0)">
<path d="M8.85243 30.705C8.85243 31.2723 9.23174 31.3239 9.57807 31.3239C11.0788 31.3239 11.5736 30.1376 11.5736 29.0545C11.5736 27.6964 10.7325 26.7164 9.39666 26.7164C9.1163 26.7164 8.98437 26.7336 8.85243 26.7508V30.705ZM8.15978 27.3009C8.15978 26.6476 7.82994 26.682 7.5166 26.682V26.4929C7.78047 26.5101 8.06083 26.5101 8.34119 26.5101C8.63804 26.5101 9.03384 26.4929 9.54509 26.4929C11.3592 26.4929 12.3322 27.7479 12.3322 29.0373C12.3322 29.7594 11.9199 31.5646 9.46263 31.5646C9.09981 31.5646 8.78647 31.5474 8.45663 31.5474C8.14329 31.5474 7.82994 31.5474 7.5166 31.5646V31.3754C7.9289 31.3239 8.14329 31.3239 8.15978 30.8253V27.3009Z" fill="black"/>
<path d="M13.3383 27.1289C13.1569 27.1289 12.992 26.957 12.992 26.7679C12.992 26.5788 13.1569 26.4241 13.3383 26.4241C13.5197 26.4241 13.6846 26.5788 13.6846 26.7679C13.6846 26.957 13.5197 27.1289 13.3383 27.1289ZM12.5962 31.3754H12.7281C12.926 31.3754 13.058 31.3754 13.058 31.1347V29.1748C13.058 28.8481 12.959 28.8138 12.6951 28.659V28.5387C13.025 28.4355 13.4208 28.298 13.4373 28.2808C13.4867 28.2464 13.5197 28.2464 13.5692 28.2464C13.6022 28.2464 13.6187 28.298 13.6187 28.3496V31.1347C13.6187 31.3754 13.7671 31.3754 13.965 31.3754H14.0805V31.5645C13.8496 31.5645 13.6022 31.5473 13.3548 31.5473C13.1074 31.5473 12.8601 31.5473 12.5962 31.5645V31.3754Z" fill="black"/>
<path d="M14.7562 29.2091C14.7562 28.934 14.6737 28.8652 14.3439 28.7277V28.5902C14.6408 28.487 14.9211 28.4011 15.2674 28.2463C15.2839 28.2463 15.3169 28.2635 15.3169 28.3151V28.7965C15.7127 28.5042 16.0591 28.2463 16.5208 28.2463C17.1145 28.2463 17.3289 28.6933 17.3289 29.2607V31.1346C17.3289 31.3753 17.4773 31.3753 17.6752 31.3753H17.8072V31.5644C17.5598 31.5644 17.3124 31.5472 17.065 31.5472C16.8177 31.5472 16.5703 31.5472 16.3064 31.5644V31.3753H16.4384C16.6363 31.3753 16.7682 31.3753 16.7682 31.1346V29.2435C16.7682 28.8309 16.5208 28.6246 16.125 28.6246C15.8941 28.6246 15.5478 28.8137 15.3169 28.9684V31.1174C15.3169 31.3581 15.4653 31.3581 15.6632 31.3581H15.7952V31.5472C15.5478 31.5472 15.3004 31.53 15.0531 31.53C14.8057 31.53 14.5583 31.53 14.2944 31.5472V31.3581H14.4264C14.6243 31.3581 14.7562 31.3581 14.7562 31.1174V29.2091Z" fill="black"/>
<path d="M19.5554 29.3294C19.7368 29.3294 19.7533 29.2263 19.7533 29.1403C19.7533 28.7621 19.5389 28.4698 19.1431 28.4698C18.7143 28.4698 18.4175 28.7965 18.335 29.3294H19.5554ZM18.3185 29.5529C18.302 29.6217 18.302 29.7248 18.3185 29.9827C18.3515 30.6704 18.7803 31.2377 19.341 31.2377C19.7203 31.2377 20.0337 31.0142 20.2811 30.7564L20.38 30.8595C20.0667 31.3065 19.6544 31.6847 19.0936 31.6847C17.9887 31.6847 17.7578 30.5673 17.7578 30.1031C17.7578 28.6761 18.6814 28.2463 19.1596 28.2463C19.7203 28.2463 20.3305 28.6246 20.347 29.381C20.347 29.4326 20.347 29.467 20.347 29.5185L20.2811 29.5701H18.3185V29.5529Z" fill="black"/>
<path d="M20.5122 31.3753H20.6936C20.8915 31.3753 21.0235 31.3753 21.0235 31.1346V29.0887C21.0235 28.8652 20.7596 28.8137 20.6606 28.7621V28.6589C21.1719 28.4354 21.4522 28.2463 21.5182 28.2463C21.5512 28.2463 21.5842 28.2635 21.5842 28.3495V29.0028H21.6007C21.7821 28.7105 22.0624 28.2463 22.4912 28.2463C22.6726 28.2463 22.887 28.3667 22.887 28.6246C22.887 28.8137 22.7551 29.0028 22.5572 29.0028C22.3428 29.0028 22.3428 28.8309 22.0954 28.8309C21.98 28.8309 21.5842 29.0028 21.5842 29.4326V31.1346C21.5842 31.3753 21.7161 31.3753 21.914 31.3753H22.3098V31.5644C21.9305 31.5644 21.6336 31.5472 21.3368 31.5472C21.0564 31.5472 20.7596 31.5472 20.5122 31.5644V31.3753Z" fill="black"/>
<path d="M23.2002 30.5501C23.2991 31.0314 23.563 31.444 24.0742 31.444C24.4865 31.444 24.635 31.1862 24.635 30.9283C24.635 30.0687 23.1177 30.3438 23.1177 29.1747C23.1177 28.7621 23.4311 28.2463 24.2062 28.2463C24.4371 28.2463 24.7339 28.3151 24.9978 28.4526L25.0473 29.1919H24.8823C24.8164 28.7277 24.569 28.4698 24.1237 28.4698C23.8434 28.4698 23.5795 28.6418 23.5795 28.9512C23.5795 29.8108 25.1957 29.5357 25.1957 30.6876C25.1957 31.169 24.8329 31.6847 23.9918 31.6847C23.7114 31.6847 23.3816 31.5816 23.1342 31.444L23.0518 30.6016L23.2002 30.5501Z" fill="black"/>
<path d="M31.5118 27.7994H31.3304C31.1985 26.957 30.6212 26.6131 29.8296 26.6131C29.0215 26.6131 27.8671 27.1805 27.8671 28.9169C27.8671 30.3954 28.8731 31.4441 29.9451 31.4441C30.6377 31.4441 31.2149 30.9455 31.3469 30.1891L31.5118 30.2407L31.3469 31.3066C31.05 31.4957 30.2584 31.6848 29.7967 31.6848C28.164 31.6848 27.125 30.5845 27.125 28.9513C27.125 27.4556 28.3949 26.3896 29.7637 26.3896C30.3244 26.3896 30.8686 26.5788 31.4128 26.7679L31.5118 27.7994Z" fill="black"/>
<path d="M31.7593 31.3754H31.8912C32.0891 31.3754 32.221 31.3754 32.221 31.1347V27.0946C32.221 26.6132 32.1221 26.6132 31.8582 26.5272V26.4069C32.1386 26.3209 32.4354 26.1834 32.5839 26.0974C32.6663 26.0631 32.7158 26.0115 32.7323 26.0115C32.7818 26.0115 32.7818 26.0631 32.7818 26.1146V31.1347C32.7818 31.3754 32.9302 31.3754 33.1281 31.3754H33.2435V31.5645C33.0127 31.5645 32.7653 31.5473 32.5179 31.5473C32.2705 31.5473 32.0231 31.5473 31.7593 31.5645V31.3754Z" fill="black"/>
<path d="M36.2448 31.1689C36.2448 31.3064 36.3272 31.3064 36.4427 31.3064C36.5251 31.3064 36.6241 31.3064 36.723 31.3064V31.4611C36.4262 31.4955 35.849 31.6502 35.717 31.6846L35.6841 31.6674V31.0829C35.2718 31.4439 34.9419 31.7018 34.4472 31.7018C34.0679 31.7018 33.6721 31.4439 33.6721 30.8422V28.9511C33.6721 28.762 33.6391 28.5729 33.2598 28.5385V28.4009C33.5071 28.4009 34.0679 28.3494 34.1668 28.3494C34.2493 28.3494 34.2493 28.4009 34.2493 28.5557V30.4296C34.2493 30.6531 34.2493 31.272 34.8595 31.272C35.0904 31.272 35.4037 31.0829 35.7005 30.825V28.8823C35.7005 28.7448 35.3707 28.6588 35.1068 28.5901V28.4525C35.7335 28.4009 36.1293 28.3494 36.1953 28.3494C36.2448 28.3494 36.2448 28.4009 36.2448 28.4869V31.1689Z" fill="black"/>
<path d="M37.6306 30.7393C37.6306 31.0143 37.8779 31.4785 38.3562 31.4785C39.0983 31.4785 39.4117 30.7221 39.4117 30.0688C39.4117 29.278 38.8345 28.6247 38.2902 28.6247C38.0264 28.6247 37.812 28.7966 37.6306 28.9685V30.7393ZM37.6306 28.7622C37.9109 28.5215 38.2902 28.2464 38.6695 28.2464C39.4776 28.2464 39.9724 28.9857 39.9724 29.7765C39.9724 30.7221 39.2962 31.6848 38.3067 31.6848C37.7955 31.6848 37.5151 31.5129 37.3337 31.427L37.1193 31.5989L36.9709 31.5129C37.0369 31.0831 37.0698 30.6533 37.0698 30.2235V27.0946C37.0698 26.6132 36.9709 26.6132 36.707 26.5272V26.4069C36.9874 26.3209 37.2842 26.1834 37.4327 26.0974C37.5151 26.0631 37.5646 26.0115 37.5811 26.0115C37.6306 26.0115 37.6306 26.0631 37.6306 26.1146V28.7622Z" fill="black"/>
<path d="M7.5166 35.7938H7.56608C7.69801 35.7938 7.84644 35.7766 7.84644 35.5703V33.4901C7.84644 33.2838 7.69801 33.2666 7.56608 33.2666H7.5166V33.1462C7.66503 33.1462 7.89591 33.1634 8.07732 33.1634C8.27522 33.1634 8.48962 33.1462 8.67102 33.1462V33.2666H8.62155C8.48962 33.2666 8.34119 33.2838 8.34119 33.4901V35.5703C8.34119 35.7766 8.48962 35.7938 8.62155 35.7938H8.67102V35.9142C8.48962 35.9142 8.25873 35.897 8.07732 35.897C7.89591 35.897 7.66503 35.9142 7.5166 35.9142V35.7938Z" fill="black"/>
<path d="M8.65442 35.8971V35.8111H8.62144C8.48951 35.8111 8.32459 35.7939 8.32459 35.5704V33.4902C8.32459 33.2667 8.48951 33.2495 8.62144 33.2495H8.65442V33.1635C8.47301 33.1635 8.25862 33.1807 8.07721 33.1807C7.8958 33.1807 7.68141 33.1635 7.53298 33.1635V33.2495H7.56597C7.6979 33.2495 7.86282 33.2667 7.86282 33.4902V35.5704C7.86282 35.7939 7.6979 35.8111 7.56597 35.8111H7.53298V35.8971C7.68141 35.8971 7.8958 35.8799 8.07721 35.8799C8.25862 35.8799 8.47301 35.8971 8.65442 35.8971ZM8.67092 35.9314C8.48951 35.9314 8.25862 35.9142 8.07721 35.9142C7.8958 35.9142 7.66492 35.9314 7.51649 35.9314H7.5V35.9142V35.7939V35.7767H7.51649H7.56597C7.6979 35.7767 7.82984 35.7595 7.82984 35.5704V33.4902C7.82984 33.3011 7.6979 33.2839 7.56597 33.2839H7.5V33.2667V33.1292H7.51649C7.66492 33.1292 7.8958 33.1463 8.07721 33.1463C8.25862 33.1463 8.48951 33.1292 8.67092 33.1292H8.68741V33.1463V33.2839H8.67092H8.62144C8.48951 33.2839 8.35757 33.3011 8.35757 33.4902V35.5704C8.35757 35.7595 8.48951 35.7767 8.62144 35.7767H8.68741V35.7939V35.9314H8.67092Z" fill="black"/>
<path d="M11.2769 35.1405V33.6448C11.2769 33.3182 11.0625 33.2666 10.947 33.2666H10.8646V33.1462C11.046 33.1462 11.2109 33.1634 11.3923 33.1634C11.5407 33.1634 11.7057 33.1462 11.8541 33.1462V33.2666H11.8046C11.6397 33.2666 11.4583 33.301 11.4583 33.7652V35.5703C11.4583 35.7078 11.4583 35.8454 11.4748 35.9657H11.3264L9.36383 33.6964V35.3296C9.36383 35.6735 9.4298 35.7938 9.72665 35.7938H9.79262V35.9141C9.6277 35.9141 9.46278 35.897 9.29787 35.897C9.13295 35.897 8.95154 35.9141 8.78662 35.9141V35.7938H8.8361C9.09996 35.7938 9.18242 35.6047 9.18242 35.2952V33.6276C9.18242 33.4041 9.00101 33.2666 8.8361 33.2666H8.8196V33.1462C8.96803 33.1462 9.11646 33.1634 9.24839 33.1634C9.36383 33.1634 9.47927 33.1462 9.59472 33.1462L11.2769 35.1405Z" fill="black"/>
<path d="M11.359 35.9658H11.4909C11.4744 35.8455 11.4744 35.708 11.4744 35.5876V33.7824C11.4744 33.3011 11.6723 33.2667 11.8372 33.2667H11.8702V33.1807C11.7218 33.1807 11.5733 33.1979 11.4249 33.1979C11.2435 33.1979 11.0786 33.1807 10.9137 33.1807V33.2667H10.9632C11.0786 33.2667 11.3095 33.3183 11.3095 33.6621V35.1578L11.293 35.175L9.61083 33.1807C9.49539 33.1807 9.37995 33.1979 9.2645 33.1979C9.13257 33.1979 8.98414 33.1807 8.85221 33.1807V33.2667H8.88519C9.0666 33.2667 9.24801 33.4042 9.24801 33.6449V35.3125C9.24801 35.622 9.16555 35.8283 8.88519 35.8283H8.85221V35.9143C9.01713 35.9143 9.18204 35.8971 9.34696 35.8971C9.51188 35.8971 9.66031 35.9143 9.82522 35.9143V35.8283H9.77575C9.4789 35.8283 9.39644 35.6908 9.39644 35.3469V33.6621L11.359 35.9658ZM11.5074 36.0002H11.359L9.42942 33.7653V35.3469C9.42942 35.6908 9.4789 35.7939 9.77575 35.7939H9.85821V35.8111V35.9486H9.84171C9.6768 35.9486 9.51188 35.9315 9.34696 35.9315C9.18204 35.9315 9.00064 35.9486 8.83572 35.9486H8.80273V35.9315V35.7939H8.81923H8.8687C9.11608 35.7939 9.19854 35.622 9.19854 35.3125V33.6449C9.19854 33.4386 9.03362 33.3011 8.8687 33.3011H8.80273V33.2839V33.1463H8.81923C8.96765 33.1463 9.11608 33.1635 9.24801 33.1635C9.36345 33.1635 9.4789 33.1463 9.59434 33.1463L11.26 35.1062V33.6449C11.26 33.3355 11.0621 33.2839 10.9467 33.2839H10.8477V33.2667V33.1292H10.8642C11.0456 33.1292 11.2105 33.1463 11.3919 33.1463C11.5404 33.1463 11.7053 33.1292 11.8537 33.1292H11.8702V33.1463V33.2839H11.8537H11.8042C11.6393 33.2839 11.4909 33.3011 11.4744 33.7653V35.5704C11.4744 35.708 11.4744 35.8455 11.4909 35.9658V35.983H11.5074V36.0002Z" fill="black"/>
<path d="M12.4471 33.3523C12.1668 33.3523 12.1503 33.4211 12.1008 33.7133H11.9854C12.0018 33.6102 12.0183 33.4898 12.0348 33.3695C12.0513 33.2663 12.0513 33.146 12.0513 33.0256H12.1503C12.1833 33.146 12.2822 33.146 12.3812 33.146H14.3437C14.4426 33.146 14.5416 33.146 14.5416 33.0256L14.624 33.0428C14.6075 33.146 14.5911 33.2491 14.5746 33.3695C14.5746 33.4726 14.5746 33.5758 14.5746 33.6961L14.4591 33.7477C14.4591 33.593 14.4261 33.3695 14.1788 33.3695H13.5521V35.4841C13.5521 35.7935 13.684 35.8279 13.8654 35.8279H13.9314V35.9483C13.783 35.9483 13.5191 35.9311 13.3047 35.9311C13.0738 35.9311 12.8099 35.9483 12.6615 35.9483V35.8279H12.7275C12.9419 35.8279 13.0408 35.8107 13.0408 35.5013V33.3867H12.4471V33.3523Z" fill="black"/>
<path d="M13.9481 35.9312C13.7997 35.9312 13.5358 35.914 13.3215 35.914C13.0906 35.914 12.8267 35.9312 12.6783 35.9312H12.6618V35.914V35.7765H12.6783H12.7442C12.9586 35.7765 13.0411 35.7765 13.0411 35.467V33.3696H12.4474V33.3524V33.3352H13.0906V35.467C13.0906 35.7765 12.9751 35.8108 12.7607 35.8108H12.7113V35.8968C12.8597 35.8968 13.1236 35.8796 13.3379 35.8796C13.5358 35.8796 13.7832 35.8968 13.9316 35.8968V35.8108H13.8822C13.7008 35.8108 13.5523 35.7593 13.5523 35.4498V33.318H14.1955C14.4429 33.318 14.4924 33.5415 14.4924 33.6962L14.5748 33.6618C14.5748 33.5587 14.5748 33.4555 14.5748 33.3524C14.5913 33.2492 14.6078 33.1461 14.6078 33.0429L14.5418 33.0257C14.5253 33.1461 14.4099 33.1461 14.3274 33.1461H12.3649H12.3484C12.266 33.1461 12.167 33.1461 12.134 33.0257H12.0681C12.0681 33.1289 12.0681 33.2492 12.0516 33.3524C12.0351 33.4555 12.0186 33.5587 12.0021 33.679H12.0846C12.134 33.404 12.167 33.318 12.4474 33.318V33.3352V33.3524C12.167 33.3524 12.167 33.404 12.1176 33.6962V33.7134H12.1011H11.9526V33.6962C11.9691 33.5931 11.9856 33.4727 12.0021 33.3524C12.0186 33.2492 12.0186 33.1289 12.0186 33.0257V33.0085H12.0351H12.134V33.0257C12.167 33.1289 12.233 33.1289 12.3319 33.1289H12.3484H14.311C14.4099 33.1289 14.4924 33.1289 14.4924 33.0257V33.0085H14.5089L14.6243 33.0257V33.0429C14.6078 33.1461 14.5913 33.2492 14.5748 33.3696C14.5748 33.4727 14.5748 33.5759 14.5748 33.6962V33.7134H14.5583L14.4264 33.765V33.7478C14.4099 33.5931 14.3934 33.3868 14.1625 33.3868H13.5523V35.4842C13.5523 35.7765 13.6678 35.8108 13.8492 35.8108H13.9316V35.828L13.9481 35.9312Z" fill="black"/>
<path d="M14.7395 35.7938H14.789C14.9209 35.7938 15.0694 35.7766 15.0694 35.5703V33.4901C15.0694 33.2838 14.9209 33.2666 14.789 33.2666H14.7395V33.1462C14.9704 33.1462 15.3662 33.1634 15.6796 33.1634C15.9929 33.1634 16.3887 33.1462 16.6526 33.1462C16.6526 33.3182 16.6526 33.576 16.6526 33.748L16.5371 33.7823C16.5206 33.5245 16.4712 33.3182 16.0754 33.3182H15.5476V34.3497H15.9929C16.2238 34.3497 16.2733 34.2121 16.2897 34.0058H16.4052C16.4052 34.1606 16.3887 34.3153 16.3887 34.47C16.3887 34.6248 16.3887 34.7795 16.4052 34.917L16.2897 34.9342C16.2733 34.6935 16.2568 34.5388 15.9929 34.5388H15.5311V35.4672C15.5311 35.725 15.7455 35.725 15.9929 35.725C16.4547 35.725 16.6526 35.6907 16.768 35.2437L16.867 35.278C16.8175 35.4843 16.768 35.6907 16.735 35.9142C16.4876 35.9142 16.0589 35.897 15.7125 35.897C15.3662 35.897 14.9209 35.9142 14.7065 35.9142V35.7938H14.7395Z" fill="black"/>
<path d="M16.7686 35.8971C16.8016 35.6907 16.8511 35.5016 16.884 35.2953L16.8016 35.2781C16.6861 35.7251 16.4718 35.7595 16.0265 35.7595C15.7791 35.7595 15.5482 35.7595 15.5482 35.4844V34.5389H16.0265C16.2903 34.5389 16.3233 34.7108 16.3398 34.9343L16.4223 34.9171C16.4223 34.7796 16.4058 34.6248 16.4058 34.4873C16.4058 34.3326 16.4058 34.195 16.4223 34.0403H16.3398C16.3233 34.2466 16.2574 34.3842 16.0265 34.3842H15.5647V33.3183H16.1089C16.5047 33.3183 16.5707 33.5246 16.5872 33.7824L16.6697 33.7653C16.6697 33.6449 16.6532 33.5074 16.6532 33.3698C16.6532 33.3011 16.6532 33.2323 16.6532 33.1807C16.3893 33.1807 16.01 33.1979 15.6966 33.1979C15.3833 33.1979 15.004 33.1807 14.7731 33.1807V33.2667H14.8061C14.938 33.2667 15.1029 33.2839 15.1029 33.5074V35.5876C15.1029 35.8111 14.938 35.8283 14.8061 35.8283H14.7566V35.9142C14.971 35.9142 15.4163 35.8971 15.7461 35.8971C16.0924 35.8799 16.5212 35.8971 16.7686 35.8971ZM16.7686 35.9314C16.5212 35.9314 16.0924 35.9142 15.7461 35.9142C15.3998 35.9142 14.9545 35.9314 14.7401 35.9314H14.7236V35.9142V35.7939V35.7767H14.7401H14.7896C14.9215 35.7767 15.0535 35.7595 15.0535 35.5704V33.4902C15.0535 33.3011 14.9215 33.2839 14.7896 33.2839H14.7236V33.2667V33.1292H14.7401C14.971 33.1292 15.3668 33.1463 15.6802 33.1463C15.9935 33.1463 16.3893 33.1292 16.6532 33.1292H16.6697V33.1463C16.6697 33.1979 16.6697 33.2839 16.6697 33.3526C16.6697 33.4902 16.6697 33.6449 16.6861 33.7481V33.7653H16.6697L16.5377 33.7996V33.7824C16.5212 33.5246 16.4882 33.3355 16.0924 33.3355H15.5812V34.3326H16.01C16.2244 34.3326 16.2739 34.2122 16.2903 34.0059V33.9887H16.3068H16.4388V34.0059C16.4388 34.1607 16.4223 34.3154 16.4223 34.4701C16.4223 34.6248 16.4223 34.7624 16.4388 34.9171V34.9343H16.4223L16.2903 34.9687V34.9515C16.2574 34.7108 16.2574 34.5733 16.01 34.5733H15.5812V35.4844C15.5812 35.7251 15.7791 35.7251 16.0265 35.7251C16.4882 35.7251 16.6697 35.6907 16.7851 35.261V35.2438H16.8016L16.917 35.2781V35.2953C16.8676 35.5016 16.8181 35.7079 16.7686 35.9314Z" fill="black"/>
<path d="M17.9065 34.4872H18.0879C18.4672 34.4872 18.6651 34.3325 18.6651 33.8683C18.6651 33.5245 18.4507 33.2838 18.1044 33.2838C17.989 33.2838 17.9395 33.301 17.89 33.301V34.4872H17.9065ZM17.4118 33.576C17.4118 33.2838 17.2633 33.2838 17.1479 33.2838H17.0819V33.1462C17.1974 33.1462 17.4447 33.1634 17.6756 33.1634C17.9065 33.1634 18.0879 33.1462 18.2858 33.1462C18.7641 33.1462 19.1929 33.2838 19.1929 33.8511C19.1929 34.2121 18.962 34.4184 18.6651 34.556L19.3083 35.5703C19.4073 35.7422 19.4897 35.7766 19.6711 35.811V35.9313C19.5392 35.9313 19.4238 35.9142 19.2918 35.9142C19.1764 35.9142 19.0444 35.9313 18.929 35.9313C18.6321 35.5359 18.3848 35.1061 18.1374 34.6419H17.89V35.4844C17.89 35.7938 18.022 35.7938 18.2034 35.7938H18.2693V35.9142C18.0549 35.9142 17.8405 35.897 17.6097 35.897C17.4282 35.897 17.2468 35.9142 17.0654 35.9142V35.7938H17.1314C17.2798 35.7938 17.3953 35.725 17.3953 35.5875V33.576H17.4118Z" fill="black"/>
<path d="M18.0879 34.47C18.4672 34.47 18.6486 34.3325 18.6651 33.8683C18.6651 33.5245 18.4507 33.301 18.1209 33.301C18.022 33.301 17.9725 33.3182 17.923 33.3182V34.47H18.0879ZM17.9065 34.5044H17.89V33.2838H17.9065C17.956 33.2838 18.0055 33.2666 18.1209 33.2666C18.4672 33.2666 18.6981 33.5073 18.6981 33.8683C18.6981 34.3325 18.4837 34.5044 18.1044 34.5044H17.9065ZM17.9065 34.6248H18.1704V34.6419C18.4178 35.0889 18.6651 35.5187 18.9455 35.9142C19.0609 35.9142 19.1764 35.897 19.3083 35.897C19.4238 35.897 19.5392 35.9142 19.6711 35.9142V35.8282C19.4897 35.811 19.4073 35.7422 19.3083 35.5875L18.6486 34.556H18.6651C18.962 34.4356 19.1764 34.2293 19.1764 33.8683C19.1764 33.3182 18.7641 33.1978 18.2858 33.1806C18.0879 33.1806 17.9065 33.1978 17.6756 33.1978C17.4447 33.1978 17.2303 33.1806 17.0984 33.1806V33.2666H17.1479C17.2633 33.2666 17.4282 33.2838 17.4282 33.576V35.5875C17.4282 35.7422 17.2798 35.811 17.1479 35.811H17.0984V35.897C17.2798 35.897 17.4612 35.8798 17.6261 35.8798C17.8405 35.8798 18.0549 35.897 18.2693 35.897V35.811H18.2199C18.0549 35.811 17.89 35.7938 17.89 35.4844V34.6248H17.9065ZM19.6711 35.9313C19.5392 35.9313 19.4238 35.9142 19.2918 35.9142C19.1764 35.9142 19.0609 35.9313 18.929 35.9313C18.6321 35.5359 18.3848 35.1061 18.1374 34.6591H17.9065V35.4844C17.9065 35.7766 18.022 35.7766 18.2034 35.7766H18.2858V35.7938V35.9313H18.2693C18.0549 35.9313 17.8241 35.9142 17.6097 35.9142C17.4282 35.9142 17.2468 35.9313 17.0654 35.9313V35.9142V35.7766H17.0819H17.1479C17.2798 35.7766 17.3953 35.7078 17.3953 35.5875V33.576C17.3953 33.301 17.2633 33.301 17.1479 33.301H17.0654V33.2838V33.1462H17.0819C17.1974 33.1462 17.4447 33.1634 17.6756 33.1634C17.9065 33.1634 18.0879 33.1462 18.2858 33.1462C18.7641 33.1462 19.2094 33.2838 19.2094 33.8683C19.2094 34.2293 18.9785 34.4528 18.6981 34.5732L19.3413 35.5703C19.4402 35.7422 19.5062 35.7766 19.7041 35.7938H19.7206V35.811L19.6711 35.9313Z" fill="black"/>
<path d="M22.2434 35.1405V33.6448C22.2434 33.3182 22.029 33.2666 21.9136 33.2666H21.8476V33.1462C22.029 33.1462 22.1939 33.1634 22.3753 33.1634C22.5238 33.1634 22.6887 33.1462 22.8371 33.1462V33.2666H22.7876C22.6227 33.2666 22.4578 33.301 22.4578 33.7652V35.5703C22.4578 35.7078 22.4578 35.8454 22.4743 35.9657H22.3259L20.3633 33.6964V35.3296C20.3633 35.6735 20.4293 35.7938 20.7262 35.7938H20.7921V35.9141C20.6272 35.9141 20.4623 35.897 20.2974 35.897C20.1325 35.897 19.9511 35.9141 19.7861 35.9141V35.7938H19.8356C20.0995 35.7938 20.1819 35.6047 20.1819 35.2952V33.6276C20.1819 33.4041 20.0005 33.2666 19.8356 33.2666H19.7861V33.1462C19.9346 33.1462 20.083 33.1634 20.2314 33.1634C20.3469 33.1634 20.4623 33.1462 20.5612 33.1462L22.2434 35.1405Z" fill="black"/>
<path d="M22.3259 35.9658H22.4578C22.4413 35.8455 22.4413 35.708 22.4413 35.5876V33.7824C22.4413 33.3011 22.6392 33.2667 22.8041 33.2667H22.8371V33.1807C22.6887 33.1807 22.5403 33.1979 22.3918 33.1979C22.2104 33.1979 22.0455 33.1807 21.8806 33.1807V33.2667H21.9466C22.062 33.2667 22.2929 33.3183 22.2929 33.6621V35.1578L22.2764 35.175L20.5942 33.1807C20.4788 33.1807 20.3633 33.1979 20.2644 33.1979C20.116 33.1979 19.984 33.1807 19.8356 33.1807V33.2667H19.8686C20.05 33.2667 20.2314 33.4042 20.2314 33.6449V35.3125C20.2314 35.622 20.149 35.8283 19.8686 35.8283H19.8356V35.9143C20.0005 35.9143 20.1654 35.8971 20.3304 35.8971C20.4953 35.8971 20.6437 35.9143 20.8086 35.9143V35.8283H20.7591C20.4623 35.8283 20.3798 35.6908 20.3798 35.3469V33.6621L22.3259 35.9658ZM22.4743 36.0002H22.3259L20.3963 33.7653V35.3469C20.3963 35.6908 20.4458 35.7939 20.7427 35.7939H20.8251V35.8111V35.9486H20.8086C20.6437 35.9486 20.4788 35.9315 20.3139 35.9315C20.149 35.9315 19.9675 35.9486 19.8026 35.9486H19.7861V35.9315V35.7939H19.8026H19.8521C20.0995 35.7939 20.1819 35.622 20.1819 35.3125V33.6449C20.1819 33.4386 20.017 33.3011 19.8521 33.3011H19.7861V33.2839V33.1463H19.8026C19.9511 33.1463 20.0995 33.1635 20.2314 33.1635C20.3469 33.1635 20.4458 33.1463 20.5777 33.1463L22.2434 35.1062V33.6449C22.2434 33.3355 22.0455 33.2839 21.9301 33.2839H21.8311V33.2667V33.1292H21.8476C22.029 33.1292 22.1939 33.1463 22.3753 33.1463C22.5238 33.1463 22.6887 33.1292 22.8371 33.1292H22.8536V33.1463V33.2839H22.8371H22.7876C22.6392 33.2839 22.4743 33.3011 22.4578 33.7653V35.5704C22.4578 35.708 22.4578 35.8455 22.4743 35.9658V35.983V36.0002Z" fill="black"/>
<path d="M24.0082 33.5931L23.6454 34.7106H24.3545L24.0082 33.5931ZM23.4475 35.3467C23.4145 35.4842 23.365 35.5874 23.365 35.6561C23.365 35.7765 23.5299 35.7937 23.6454 35.7937H23.6949V35.914C23.5464 35.8968 23.3815 35.8968 23.2331 35.8968C23.1012 35.8968 22.9527 35.8968 22.8208 35.914V35.7937H22.8373C22.9857 35.7937 23.1177 35.7077 23.1671 35.5358L23.7773 33.7135C23.8268 33.5587 23.8928 33.3696 23.9258 33.2149C24.0412 33.1633 24.2061 33.0945 24.2721 33.043C24.2886 33.043 24.2886 33.043 24.3051 33.043C24.3216 33.043 24.3216 33.043 24.338 33.0602C24.3545 33.0945 24.3545 33.1289 24.371 33.1633L25.0637 35.2263C25.1132 35.3639 25.1461 35.5186 25.1956 35.6389C25.2451 35.7421 25.3276 35.7937 25.443 35.7937H25.4595V35.914C25.2946 35.8968 25.1132 35.8968 24.9317 35.8968C24.7503 35.8968 24.5524 35.8968 24.3545 35.914V35.7937H24.404C24.4865 35.7937 24.6349 35.7765 24.6349 35.6733C24.6349 35.6218 24.6019 35.5186 24.5524 35.3811L24.404 34.9169H23.5464L23.4475 35.3467Z" fill="black"/>
<path d="M23.6617 34.6933H24.3213L23.9915 33.6274L23.6617 34.6933ZM23.6287 34.7276L23.9915 33.5758H24.008V33.593V33.5758H24.0245L24.3873 34.7276H23.6287ZM24.4038 35.8967C24.5852 35.8967 24.7831 35.8795 24.9645 35.8795C25.1459 35.8795 25.3108 35.8795 25.4757 35.8967V35.8107C25.3438 35.8107 25.2614 35.7592 25.2119 35.6388C25.1624 35.5185 25.1129 35.3809 25.0635 35.2262L24.3708 33.1632C24.3543 33.1288 24.3543 33.0944 24.3378 33.06H24.3213C24.2554 33.1116 24.0904 33.1804 23.975 33.2147C23.9585 33.3695 23.8761 33.5586 23.8266 33.7133L23.1999 35.5529C23.1339 35.7248 23.002 35.8279 22.8536 35.8279V35.9139C22.9855 35.9139 23.1174 35.8967 23.2494 35.8967C23.3978 35.8967 23.5462 35.8967 23.6946 35.9139V35.8279H23.6617C23.5297 35.8279 23.3648 35.8107 23.3648 35.6732C23.3648 35.5872 23.4143 35.5013 23.4473 35.3637H23.4638H23.4473L23.5792 34.9339H24.4698L24.6182 35.3981C24.6677 35.5185 24.7006 35.6388 24.7006 35.6904C24.7006 35.8107 24.5357 35.8279 24.4533 35.8279H24.4203V35.8967H24.4038ZM25.4757 35.9311C25.3108 35.9311 25.1294 35.9139 24.948 35.9139C24.7666 35.9139 24.5687 35.9311 24.3708 35.9311H24.3543V35.9139V35.7763H24.3708H24.4203C24.5027 35.7763 24.6347 35.7592 24.6347 35.6732C24.6347 35.6216 24.6017 35.5185 24.5522 35.3981L24.4038 34.9511H23.5627L23.4473 35.3466C23.4143 35.4841 23.3648 35.5872 23.3648 35.656C23.3648 35.7592 23.5132 35.7763 23.6287 35.7763H23.6946V35.7935V35.9311H23.6782C23.5297 35.9311 23.3648 35.9139 23.2164 35.9139C23.0844 35.9139 22.936 35.9311 22.8041 35.9311H22.7876V35.9139V35.7763H22.8041H22.8206C22.969 35.7763 23.0844 35.6904 23.1339 35.5357L23.7441 33.7133C23.7936 33.5586 23.8596 33.3695 23.8925 33.2147C24.008 33.1804 24.1564 33.0944 24.2389 33.0428C24.2554 33.0428 24.2554 33.0256 24.2719 33.0256C24.2883 33.0256 24.3048 33.0256 24.3213 33.0428C24.3378 33.0772 24.3378 33.1116 24.3543 33.146L25.047 35.209C25.0964 35.3465 25.1294 35.5013 25.1789 35.6044C25.2284 35.7076 25.2943 35.7592 25.4098 35.7592H25.4428V35.7763V35.9139L25.4757 35.9311Z" fill="black"/>
<path d="M25.641 33.3523C25.3606 33.3523 25.3441 33.4211 25.2946 33.7133H25.1792C25.1957 33.6102 25.2122 33.4898 25.2287 33.3695C25.2452 33.2663 25.2452 33.146 25.2452 33.0256H25.3441C25.3771 33.146 25.4761 33.146 25.575 33.146H27.5375C27.6365 33.146 27.7354 33.146 27.7354 33.0256L27.8344 33.0428C27.8179 33.146 27.8014 33.2491 27.8014 33.3695C27.7849 33.4726 27.7849 33.5758 27.7849 33.6961L27.6695 33.7477C27.6695 33.593 27.6365 33.3695 27.3891 33.3695H26.7624V35.4841C26.7624 35.7935 26.8943 35.8279 27.0758 35.8279H27.1417V35.9483C26.9933 35.9483 26.7294 35.9311 26.515 35.9311C26.2841 35.9311 26.0203 35.9483 25.8719 35.9483V35.8279H25.9378C26.1522 35.8279 26.2512 35.8107 26.2512 35.5013V33.3867H25.641V33.3523Z" fill="black"/>
<path d="M27.1419 35.9312C26.9935 35.9312 26.7296 35.914 26.5153 35.914C26.2844 35.914 26.0205 35.9312 25.8721 35.9312H25.8556V35.914V35.7765H25.8721H25.938C26.1524 35.7765 26.2349 35.7765 26.2349 35.467V33.3696H25.6412V33.3524V33.3352H26.2844V35.467C26.2844 35.7765 26.1689 35.8108 25.9545 35.8108H25.9051V35.8968C26.0535 35.8968 26.3173 35.8796 26.5317 35.8796C26.7296 35.8796 26.977 35.8968 27.1419 35.8968V35.8108H27.0925C26.9111 35.8108 26.7626 35.7593 26.7626 35.4498V33.318H27.4058C27.6532 33.318 27.6862 33.5415 27.7027 33.6962L27.7851 33.6618C27.7851 33.5587 27.7851 33.4555 27.8016 33.3524C27.8181 33.2492 27.8181 33.1461 27.8346 33.0429L27.7851 33.0257C27.7686 33.1461 27.6532 33.1461 27.5707 33.1461H25.6082H25.5917C25.5093 33.1461 25.4103 33.1461 25.3773 33.0257H25.3114C25.3114 33.1289 25.2949 33.2492 25.2949 33.3524C25.2784 33.4555 25.2619 33.5587 25.2454 33.679H25.3278C25.3773 33.404 25.4103 33.318 25.6907 33.318V33.3352V33.3524C25.4103 33.3524 25.4103 33.404 25.3608 33.6962V33.7134H25.3443H25.2124V33.6962C25.2289 33.5931 25.2454 33.4727 25.2619 33.3524C25.2784 33.2492 25.2784 33.1289 25.2784 33.0257V33.0085H25.2949H25.3938V33.0257C25.4268 33.1289 25.4928 33.1289 25.5917 33.1289H25.6082H27.5707C27.6697 33.1289 27.7521 33.1289 27.7521 33.0257V33.0085H27.7686L27.8841 33.0257V33.0429C27.8676 33.1461 27.8511 33.2492 27.8346 33.3696C27.8346 33.4727 27.8346 33.5759 27.8346 33.6962V33.7134H27.8181L27.6862 33.765V33.7478C27.6697 33.5931 27.6532 33.3868 27.4223 33.3868H26.8121V35.4842C26.8121 35.7765 26.9275 35.8108 27.109 35.8108H27.1914V35.828L27.1419 35.9312Z" fill="black"/>
<path d="M27.9663 35.7938H28.0158C28.1477 35.7938 28.2961 35.7766 28.2961 35.5703V33.4901C28.2961 33.2838 28.1477 33.2666 28.0158 33.2666H27.9663V33.1462C28.1147 33.1462 28.3456 33.1634 28.527 33.1634C28.7249 33.1634 28.9393 33.1462 29.1207 33.1462V33.2666H29.0713C28.9393 33.2666 28.7909 33.2838 28.7909 33.4901V35.5703C28.7909 35.7766 28.9393 35.7938 29.0713 35.7938H29.1207V35.9142C28.9393 35.9142 28.7084 35.897 28.527 35.897C28.3456 35.897 28.1147 35.9142 27.9663 35.9142V35.7938Z" fill="black"/>
<path d="M29.1041 35.8971V35.8111H29.0711C28.9392 35.8111 28.7743 35.7939 28.7743 35.5704V33.4902C28.7743 33.2667 28.9392 33.2495 29.0711 33.2495H29.1041V33.1635C28.9227 33.1635 28.7083 33.1807 28.5269 33.1807C28.3455 33.1807 28.1311 33.1635 27.9827 33.1635V33.2495H28.0157C28.1476 33.2495 28.3125 33.2667 28.3125 33.4902V35.5704C28.3125 35.7939 28.1476 35.8111 28.0157 35.8111H27.9827V35.8971C28.1311 35.8971 28.3455 35.8799 28.5269 35.8799C28.7083 35.8799 28.9227 35.8971 29.1041 35.8971ZM29.1206 35.9314C28.9392 35.9314 28.7083 35.9142 28.5269 35.9142C28.3455 35.9142 28.1146 35.9314 27.9662 35.9314H27.9497V35.9142V35.7939V35.7767H27.9662H28.0157C28.1476 35.7767 28.2795 35.7595 28.2795 35.5704V33.4902C28.2795 33.3011 28.1476 33.2839 28.0157 33.2839H27.9497V33.2667V33.1292H27.9662C28.1146 33.1292 28.3455 33.1463 28.5269 33.1463C28.7083 33.1463 28.9392 33.1292 29.1206 33.1292H29.1371V33.1463V33.2839H29.1206H29.0711C28.9392 33.2839 28.8073 33.3011 28.8073 33.4902V35.5704C28.8073 35.7595 28.9392 35.7767 29.0711 35.7767H29.1371V35.7939L29.1206 35.9314Z" fill="black"/>
<path d="M30.6876 35.8111C31.4297 35.8111 31.5452 35.1406 31.5452 34.556C31.5452 33.9715 31.2483 33.2838 30.6216 33.2838C29.962 33.2838 29.7641 33.9028 29.7641 34.4357C29.7641 35.1234 30.0774 35.8111 30.6876 35.8111ZM30.6381 33.0947C31.4462 33.0947 32.0894 33.6105 32.0894 34.4529C32.0894 35.3641 31.4627 35.9658 30.6546 35.9658C29.8465 35.9658 29.2363 35.3985 29.2363 34.5389C29.2363 33.7308 29.8465 33.0947 30.6381 33.0947Z" fill="black"/>
<path d="M29.747 34.4184C29.747 33.8854 29.9449 33.2493 30.621 33.2493C31.2642 33.2493 31.5611 33.9714 31.5611 34.5387C31.5611 35.1232 31.4291 35.8109 30.687 35.8109V35.7937V35.7765C31.4126 35.7765 31.5281 35.1232 31.5281 34.5387C31.5281 33.9714 31.2312 33.2837 30.621 33.2837C29.9614 33.2837 29.78 33.8854 29.78 34.4184C29.78 35.1232 30.0933 35.7937 30.687 35.7937V35.8109V35.8281C30.0603 35.8109 29.747 35.1232 29.747 34.4184ZM29.2192 34.5559C29.2192 33.7307 29.8459 33.0774 30.6375 33.0774V33.0946V33.1118C29.8624 33.1118 29.2522 33.7479 29.2522 34.5559C29.2522 35.3983 29.8624 35.9656 30.654 35.9656C31.4621 35.9656 32.0723 35.3639 32.0723 34.4699C32.0723 33.6447 31.4291 33.129 30.6375 33.129V33.1118V33.0946C31.4456 33.0946 32.1053 33.6275 32.1053 34.4699C32.1053 35.3983 31.4621 36 30.654 36C29.8459 36 29.2192 35.4155 29.2192 34.5559Z" fill="black"/>
<path d="M34.6455 35.1405V33.6448C34.6455 33.3182 34.4311 33.2666 34.3157 33.2666H34.2332V33.1462C34.4146 33.1462 34.5796 33.1634 34.761 33.1634C34.9094 33.1634 35.0743 33.1462 35.2227 33.1462V33.2666H35.1733C35.0083 33.2666 34.8269 33.301 34.8269 33.7652V35.5703C34.8269 35.7078 34.8269 35.8454 34.8434 35.9657H34.695L32.7325 33.6964V35.3296C32.7325 35.6735 32.7985 35.7938 33.0953 35.7938H33.1613V35.9141C32.9964 35.9141 32.8314 35.897 32.6665 35.897C32.5016 35.897 32.3202 35.9141 32.1553 35.9141V35.7938H32.2047C32.4686 35.7938 32.5511 35.6047 32.5511 35.2952V33.6276C32.5511 33.4041 32.3697 33.2666 32.2047 33.2666H32.1553V33.1462C32.3037 33.1462 32.4521 33.1634 32.5841 33.1634C32.6995 33.1634 32.8149 33.1462 32.9139 33.1462L34.6455 35.1405Z" fill="black"/>
<path d="M34.7276 35.9658H34.8595C34.843 35.8455 34.843 35.708 34.843 35.5876V33.7824C34.843 33.3011 35.0409 33.2667 35.2059 33.2667H35.2388V33.1807C35.0904 33.1807 34.942 33.1979 34.7936 33.1979C34.6287 33.1979 34.4472 33.1807 34.2823 33.1807V33.2667H34.3483C34.4637 33.2667 34.6946 33.3183 34.6946 33.6621V35.1578L34.6781 35.175L32.996 33.1807C32.8805 33.1807 32.7651 33.1979 32.6661 33.1979C32.5342 33.1979 32.3858 33.1807 32.2374 33.1807V33.2667H32.2703C32.4517 33.2667 32.6332 33.4042 32.6332 33.6449V35.3125C32.6332 35.622 32.5507 35.8283 32.2703 35.8283H32.2374V35.9143C32.4023 35.9143 32.5672 35.8971 32.7321 35.8971C32.897 35.8971 33.0454 35.9143 33.2104 35.9143V35.8283H33.1609C32.864 35.8283 32.7816 35.6908 32.7816 35.3469V33.6621L34.7276 35.9658ZM34.876 36.0002H34.7111L32.7816 33.7653V35.3469C32.7816 35.6908 32.8311 35.7939 33.1279 35.7939H33.2104V35.8111V35.9486H33.1939C33.029 35.9486 32.864 35.9315 32.6991 35.9315C32.5342 35.9315 32.3528 35.9486 32.1879 35.9486H32.1714V35.9315V35.7939H32.1879H32.2374C32.4847 35.7939 32.5672 35.622 32.5672 35.3125V33.6449C32.5672 33.4386 32.4023 33.3011 32.2374 33.3011H32.1714V33.2839V33.1463H32.1879C32.3363 33.1463 32.4847 33.1635 32.6332 33.1635C32.7486 33.1635 32.8475 33.1463 32.9795 33.1463L34.6451 35.1062V33.6449C34.6451 33.3355 34.4472 33.2839 34.3318 33.2839H34.2164V33.2667V33.1292H34.2329C34.4143 33.1292 34.5792 33.1463 34.7606 33.1463C34.909 33.1463 35.0739 33.1292 35.2224 33.1292H35.2388V33.1463V33.2839H35.2224H35.1729C35.0245 33.2839 34.8595 33.3011 34.8595 33.7653V35.5704C34.8595 35.708 34.8595 35.8455 34.876 35.9658V35.983V36.0002Z" fill="black"/>
<path d="M36.4101 33.5931L36.0472 34.7106H36.7564L36.4101 33.5931ZM35.8493 35.3467C35.8164 35.4842 35.7669 35.5874 35.7669 35.6561C35.7669 35.7765 35.9318 35.7937 36.0472 35.7937H36.0967V35.914C35.9483 35.8968 35.7834 35.8968 35.6349 35.8968C35.503 35.8968 35.3546 35.8968 35.2227 35.914V35.7937H35.2391C35.3876 35.7937 35.5195 35.7077 35.569 35.5358L36.1792 33.7135C36.2287 33.5587 36.2946 33.3696 36.3111 33.2149C36.4266 33.1633 36.5915 33.0945 36.6574 33.043C36.6739 33.043 36.6739 33.043 36.6904 33.043C36.7069 33.043 36.7069 33.043 36.7234 33.0602C36.7399 33.0945 36.7399 33.1289 36.7564 33.1633L37.449 35.2263C37.4985 35.3639 37.548 35.5186 37.5975 35.6389C37.6469 35.7421 37.7294 35.7937 37.8448 35.7937H37.8613V35.914C37.6964 35.8968 37.515 35.8968 37.3336 35.8968C37.1522 35.8968 36.9543 35.8968 36.7564 35.914V35.7937H36.8059C36.8883 35.7937 37.0367 35.7765 37.0367 35.6733C37.0367 35.6218 37.0038 35.5186 36.9543 35.3811L36.8059 34.9169H35.9483L35.8493 35.3467Z" fill="black"/>
<path d="M36.064 34.6933H36.7237L36.3938 33.6274L36.064 34.6933ZM36.0145 34.7276L36.3773 33.5758H36.3938H36.4103V33.593V33.5758H36.4268L36.7896 34.7276H36.0145ZM36.7896 35.8967C36.9711 35.8967 37.169 35.8795 37.3504 35.8795C37.5318 35.8795 37.6967 35.8795 37.8616 35.8967V35.8107C37.7297 35.8107 37.6472 35.7592 37.5977 35.6388C37.5483 35.5185 37.4988 35.3809 37.4493 35.2262L36.7567 33.1632C36.7402 33.1288 36.7402 33.0944 36.7237 33.0772H36.7072C36.6247 33.1288 36.4763 33.1976 36.3609 33.2319C36.3444 33.3867 36.2619 33.5758 36.2124 33.7305L35.6022 35.5529C35.5528 35.7248 35.4043 35.8279 35.2559 35.8279V35.9139C35.3878 35.9139 35.5198 35.8967 35.6517 35.8967C35.8001 35.8967 35.9486 35.8967 36.097 35.9139V35.8279H36.064C35.9486 35.8279 35.7672 35.8107 35.7672 35.6732C35.7672 35.5872 35.8166 35.5013 35.8496 35.3637H35.8661H35.8496L35.9815 34.9339H36.8721L37.0205 35.3981C37.07 35.5185 37.103 35.6388 37.103 35.6904C37.103 35.8107 36.9381 35.8279 36.8556 35.8279H36.8226V35.8967H36.7896ZM37.8781 35.9311C37.7132 35.9311 37.5318 35.9139 37.3504 35.9139C37.169 35.9139 36.9711 35.9311 36.7732 35.9311H36.7567V35.9139V35.7763H36.7732H36.8226C36.9051 35.7763 37.037 35.7592 37.037 35.6732C37.037 35.6216 37.004 35.5185 36.9546 35.3981L36.8061 34.9511H35.9651L35.8496 35.3466C35.8166 35.4841 35.7672 35.5872 35.7672 35.656C35.7672 35.7592 35.9156 35.7763 36.031 35.7763H36.097V35.7935V35.9311H36.0805C35.9321 35.9311 35.7672 35.9139 35.6187 35.9139C35.4868 35.9139 35.3384 35.9311 35.2064 35.9311H35.1899V35.9139V35.7763H35.2064H35.2229C35.3714 35.7763 35.4868 35.6904 35.5363 35.5357L36.1465 33.7133C36.1959 33.5586 36.2619 33.3695 36.2949 33.2147C36.4103 33.1632 36.5588 33.0944 36.6412 33.0428C36.6577 33.0428 36.6577 33.0256 36.6742 33.0256C36.6907 33.0256 36.7072 33.0256 36.7072 33.0428C36.7237 33.0772 36.7237 33.1116 36.7402 33.146L37.4328 35.209C37.4823 35.3465 37.5318 35.5013 37.5812 35.6044C37.6307 35.7076 37.6967 35.7592 37.8121 35.7592H37.8451V35.7763V35.9139L37.8781 35.9311Z" fill="black"/>
<path d="M38.8342 35.5359C38.8342 35.6907 38.9332 35.7422 39.0651 35.7594C39.2136 35.7766 39.395 35.7766 39.5599 35.7594C39.7248 35.7422 39.8567 35.6391 39.9227 35.5531C39.9887 35.4672 40.0217 35.364 40.0381 35.2609H40.1536C40.1041 35.4844 40.0546 35.7078 40.0052 35.9313C39.6753 35.9313 39.329 35.9142 38.9992 35.9142C38.6693 35.9142 38.323 35.9313 37.9932 35.9313V35.811H38.0426C38.1746 35.811 38.323 35.7938 38.323 35.5531V33.5245C38.323 33.3182 38.1746 33.301 38.0426 33.301H38.0097V33.1462C38.2076 33.1462 38.4055 33.1634 38.6034 33.1634C38.8013 33.1634 38.9827 33.1462 39.1806 33.1462V33.2666H39.0816C38.9332 33.2666 38.8178 33.2666 38.8178 33.4729V35.5359H38.8342Z" fill="black"/>
<path d="M40.0055 35.8971C40.055 35.6736 40.1045 35.4673 40.1375 35.261H40.055C40.0385 35.3469 40.0055 35.4501 39.9396 35.536C39.8736 35.6392 39.7252 35.7423 39.5603 35.7595C39.4613 35.7767 39.3624 35.7767 39.2634 35.7767C39.1974 35.7767 39.115 35.7767 39.049 35.7767C38.9336 35.7595 38.8016 35.7079 38.8016 35.536V33.4902C38.8016 33.2667 38.9336 33.2667 39.082 33.2667H39.1645V33.1807C38.983 33.1807 38.7851 33.1979 38.6037 33.1979C38.4058 33.1979 38.2079 33.1807 38.0265 33.1807V33.2667H38.0595C38.1914 33.2667 38.3564 33.2839 38.3564 33.5074V35.536C38.3564 35.7939 38.1914 35.8111 38.0595 35.8111H38.0265V35.8971C38.3564 35.8971 38.6862 35.8799 39.016 35.8799C39.3459 35.8799 39.6757 35.8971 40.0055 35.8971ZM40.0055 35.9314C39.6757 35.9314 39.3294 35.9142 38.9995 35.9142C38.6697 35.9142 38.3234 35.9314 37.9935 35.9314H37.9771V35.9142V35.7767H37.9935H38.043C38.175 35.7767 38.3069 35.7595 38.3069 35.536V33.4902C38.3069 33.3011 38.175 33.2839 38.043 33.2839H37.9771V33.2667V33.1292H37.9935C38.1914 33.1292 38.3893 33.1463 38.5872 33.1463C38.7851 33.1463 38.9666 33.1292 39.1645 33.1292H39.1809V33.1463V33.2839H39.1645H39.0655C38.9171 33.2839 38.8346 33.2839 38.8181 33.473V35.5188C38.8181 35.6736 38.9171 35.7079 39.0325 35.7251C39.0985 35.7251 39.1645 35.7251 39.2469 35.7251C39.3459 35.7251 39.4283 35.7251 39.5273 35.7079C39.6757 35.6907 39.8076 35.5876 39.8736 35.5016C39.9396 35.4157 39.9726 35.3125 39.989 35.2266V35.2094H40.0055H40.1375V35.2266C40.121 35.4673 40.0715 35.6907 40.0055 35.9314Z" fill="black"/>
<path d="M40.0383 33.4556H40.0878C40.1373 33.4556 40.1703 33.4212 40.1703 33.3524C40.1703 33.2837 40.1373 33.2665 40.0878 33.2665H40.0383V33.4556ZM39.9064 33.6791V33.6619C39.9559 33.6619 39.9724 33.6619 39.9724 33.6275V33.318C39.9724 33.2665 39.9724 33.2665 39.9229 33.2665V33.2493H40.1208C40.1868 33.2493 40.2527 33.2837 40.2527 33.3524C40.2527 33.4212 40.2197 33.4556 40.1538 33.4728L40.2197 33.5759C40.2527 33.6275 40.2857 33.6619 40.3022 33.6791V33.6963H40.2197C40.1868 33.6963 40.1538 33.6103 40.0713 33.5072H40.0218V33.6447C40.0218 33.6791 40.0383 33.6791 40.0878 33.6791V33.6963H39.9064V33.6791ZM40.1043 33.7994C40.2857 33.7994 40.4176 33.6447 40.4176 33.4556C40.4176 33.2837 40.2857 33.1117 40.1043 33.1117C39.9229 33.1117 39.791 33.2665 39.791 33.4556C39.791 33.6447 39.9229 33.7994 40.1043 33.7994ZM40.1043 33.043C40.3352 33.043 40.5001 33.2321 40.5001 33.4556C40.5001 33.6791 40.3352 33.8682 40.1043 33.8682C39.8734 33.8682 39.7085 33.6791 39.7085 33.4556C39.7085 33.2321 39.8734 33.043 40.1043 33.043Z" fill="black"/>
<path d="M23.332 12.1203H23.8103C23.6454 12.1031 23.4805 12.1031 23.332 12.1203Z" fill="#E6007E"/>
<path d="M23.8099 25.9941H23.0513C23.2986 26.0113 23.546 26.0113 23.8099 25.9941Z" fill="#E6007E"/>
<path d="M22.8373 12.6877C19.473 12.6877 16.7354 15.5416 16.7354 19.0488C16.7354 22.5559 19.473 25.4098 22.8373 25.4098C26.2016 25.4098 28.9392 22.5559 28.9392 19.0488C28.9392 15.5416 26.2181 12.6877 22.8373 12.6877ZM21.452 22.8138C20.0007 22.2293 18.9782 20.768 18.9782 19.0488C18.9782 17.3296 20.0172 15.8683 21.452 15.2837V22.8138ZM24.2226 22.8138V15.2837C25.6739 15.8683 26.6964 17.3296 26.7129 19.0488C26.7129 20.768 25.6739 22.2293 24.2226 22.8138Z" fill="white"/>
<path d="M31.4457 20.1489C31.4457 20.1317 31.4457 20.0973 31.4622 20.0801C31.5117 19.7535 31.5282 19.4268 31.5282 19.083C31.5282 18.2062 31.3798 17.381 31.0994 16.6417C30.1099 14.0285 27.4877 12.189 23.8265 12.103H23.3318C20.8745 12.1546 19.0439 13.0142 17.84 14.3208C16.834 15.4555 16.1909 16.9684 16.1084 18.7219C16.1084 18.7391 16.1084 18.7391 16.1084 18.7563C16.1084 18.8079 16.1084 18.8595 16.1084 18.9111C16.1084 18.9282 16.1084 18.9454 16.1084 18.9626C16.1084 19.0142 16.1084 19.0658 16.1084 19.1174C16.1084 19.1345 16.1084 19.1345 16.1084 19.1517C16.1084 19.2033 16.1084 19.2549 16.1084 19.3065C16.1579 21.4727 17.2133 23.4153 18.813 24.636C19.918 25.4268 21.3363 25.9426 23.0514 26.0113H23.81C26.5312 25.9082 28.6586 24.911 29.978 23.3466C30.7201 22.4354 31.2478 21.3523 31.4457 20.1489C31.4292 20.1661 31.4292 20.1661 31.4457 20.1489ZM22.837 25.4096C19.4727 25.4096 16.7351 22.5557 16.7351 19.0486C16.7351 15.5414 19.4727 12.6876 22.837 12.6876C26.2014 12.6876 28.939 15.5414 28.939 19.0486C28.939 22.5557 26.2178 25.4096 22.837 25.4096Z" fill="#006699"/>
<path d="M24.2222 15.2834V22.8135C25.6734 22.229 26.6959 20.7677 26.7124 19.0485C26.7124 17.3293 25.6734 15.868 24.2222 15.2834Z" fill="#006699"/>
<path d="M18.978 19.0485C18.978 20.7677 20.017 22.229 21.4518 22.8135V15.2834C20.0005 15.868 18.978 17.3293 18.978 19.0485Z" fill="#006699"/>
</g>
<defs>
<clipPath id="clip0">
<rect width="33" height="24" fill="white" transform="translate(7.5 12)"/>
</clipPath>
</defs>
</svg>
