<svg width="48" height="48" viewBox="0 0 48 48" fill="none" xmlns="http://www.w3.org/2000/svg">
<path d="M44 7H4C2.34315 7 1 8.34315 1 10V38C1 39.6569 2.34315 41 4 41H44C45.6569 41 47 39.6569 47 38V10C47 8.34315 45.6569 7 44 7Z" fill="#243747"/>
<path d="M19 32C23.4183 32 27 28.4183 27 24C27 19.5817 23.4183 16 19 16C14.5817 16 11 19.5817 11 24C11 28.4183 14.5817 32 19 32Z" fill="#E61C24"/>
<path d="M28.9341 32C33.3524 32 36.9341 28.4183 36.9341 24C36.9341 19.5817 33.3524 16 28.9341 16C24.5158 16 20.9341 19.5817 20.9341 24C20.9341 28.4183 24.5158 32 28.9341 32Z" fill="#F99F1B"/>
<path d="M23.9671 17.736C23.0215 18.4835 22.2575 19.4353 21.7322 20.5202C21.2069 21.605 20.9341 22.7947 20.9341 24C20.9341 25.2053 21.2069 26.395 21.7322 27.4798C22.2575 28.5647 23.0215 29.5165 23.9671 30.264C24.9126 29.5165 25.6766 28.5647 26.2019 27.4798C26.7272 26.395 27 25.2053 27 24C27 22.7947 26.7272 21.605 26.2019 20.5202C25.6766 19.4353 24.9126 18.4835 23.9671 17.736Z" fill="#F26622"/>
</svg>
