<svg width="48" height="48" viewBox="0 0 48 48" fill="none" xmlns="http://www.w3.org/2000/svg">
<path d="M44 7H4C2.34315 7 1 8.34315 1 10V38C1 39.6569 2.34315 41 4 41H44C45.6569 41 47 39.6569 47 38V10C47 8.34315 45.6569 7 44 7Z" fill="#1A1876"/>
<path d="M19.238 28.8H21.847L23.48 19.224H20.87L19.238 28.8Z" fill="white"/>
<path d="M28.7431 23.069C27.8311 22.626 27.2721 22.33 27.2781 21.882C27.2781 21.482 27.7511 21.058 28.7781 21.058C29.5348 21.0391 30.2849 21.2027 30.9651 21.535L31.3191 19.46C30.5688 19.1894 29.7766 19.0539 28.9791 19.06C26.4001 19.06 24.5791 20.36 24.5681 22.22C24.5541 23.596 25.8681 24.364 26.8551 24.82C27.8711 25.289 28.2131 25.588 28.2081 26.007C28.2011 26.649 27.3971 26.943 26.6461 26.943C25.6745 26.9657 24.7132 26.7402 23.8531 26.288L23.4871 28.431C24.4174 28.7748 25.4022 28.9479 26.3941 28.942C29.1381 28.942 30.9191 27.658 30.9391 25.671C30.9441 24.581 30.2491 23.752 28.7431 23.069Z" fill="white"/>
<path d="M38.0071 19.233H35.9901C35.7066 19.1967 35.4191 19.2548 35.172 19.3983C34.9249 19.5419 34.732 19.7628 34.6231 20.027L30.7471 28.8H33.4881C33.4881 28.8 33.9361 27.62 34.0371 27.361H37.3801C37.4581 27.697 37.6981 28.796 37.6981 28.796H40.1201L38.0071 19.233ZM34.7891 25.406C34.8971 25.129 35.9621 22.394 36.1751 21.815C36.5271 23.465 36.1841 21.864 36.9551 25.406H34.7891Z" fill="white"/>
<path d="M17.0489 19.231L14.4929 25.761L14.2209 24.434L13.3059 20.034C13.2392 19.7791 13.0827 19.5568 12.8651 19.4082C12.6475 19.2595 12.3836 19.1945 12.1219 19.225H7.91288L7.87988 19.425C8.83688 19.6508 9.75915 20.0043 10.6219 20.476L12.9419 28.793H15.7039L19.8129 19.235L17.0489 19.231Z" fill="white"/>
</svg>
